<?xml version="1.0" encoding="UTF-8" standalone="no"?>
<svg width="680.156mm" height="503.767mm"
 viewBox="0 0 1928 1428"
 xmlns="http://www.w3.org/2000/svg" xmlns:xlink="http://www.w3.org/1999/xlink"  version="1.2" baseProfile="tiny">
<title>Qt Svg Document</title>
<desc>Generated with Qt</desc>
<defs>
</defs>
<g fill="none" stroke="black" stroke-width="1" fill-rule="evenodd" stroke-linecap="square" stroke-linejoin="bevel" >

<g fill="#ffffff" fill-opacity="1" stroke="none" transform="matrix(1,0,0,1,0,0)"
font-family="Helvetica" font-size="12" font-weight="400" font-style="normal" 
>
<path vector-effect="non-scaling-stroke" fill-rule="evenodd" d="M0,0 L1928,0 L1928,1428 L0,1428 L0,0"/>
<path vector-effect="non-scaling-stroke" fill-rule="evenodd" d="M0,0 L1928,0 L1928,1428 L0,1428 L0,0"/>
</g>

<g fill="#616671" fill-opacity="1" stroke="none" transform="matrix(1,0,0,1,0,0)"
font-family="Helvetica" font-size="12" font-weight="400" font-style="normal" 
>
<path vector-effect="non-scaling-stroke" fill-rule="evenodd" d="M99,35 L279,35 C284.52,35 289,39.48 289,45 L289,105 C289,110.52 284.52,115 279,115 L99,115 C93.48,115 89,110.52 89,105 L89,45 C89,39.48 93.48,35 99,35 "/>
<path vector-effect="non-scaling-stroke" fill-rule="evenodd" d="M303,35 L483,35 C488.52,35 493,39.48 493,45 L493,105 C493,110.52 488.52,115 483,115 L303,115 C297.48,115 293,110.52 293,105 L293,45 C293,39.48 297.48,35 303,35 "/>
<path vector-effect="non-scaling-stroke" fill-rule="evenodd" d="M507,35 L687,35 C692.52,35 697,39.48 697,45 L697,105 C697,110.52 692.52,115 687,115 L507,115 C501.48,115 497,110.52 497,105 L497,45 C497,39.48 501.48,35 507,35 "/>
<path vector-effect="non-scaling-stroke" fill-rule="evenodd" d="M711,35 L891,35 C896.52,35 901,39.48 901,45 L901,105 C901,110.52 896.52,115 891,115 L711,115 C705.48,115 701,110.52 701,105 L701,45 C701,39.48 705.48,35 711,35 "/>
<path vector-effect="non-scaling-stroke" fill-rule="evenodd" d="M915,35 L1095,35 C1100.52,35 1105,39.48 1105,45 L1105,105 C1105,110.52 1100.52,115 1095,115 L915,115 C909.48,115 905,110.52 905,105 L905,45 C905,39.48 909.48,35 915,35 "/>
<path vector-effect="non-scaling-stroke" fill-rule="evenodd" d="M1119,35 L1299,35 C1304.52,35 1309,39.48 1309,45 L1309,105 C1309,110.52 1304.52,115 1299,115 L1119,115 C1113.48,115 1109,110.52 1109,105 L1109,45 C1109,39.48 1113.48,35 1119,35 "/>
<path vector-effect="non-scaling-stroke" fill-rule="evenodd" d="M1323,35 L1503,35 C1508.52,35 1513,39.48 1513,45 L1513,105 C1513,110.52 1508.52,115 1503,115 L1323,115 C1317.48,115 1313,110.52 1313,105 L1313,45 C1313,39.48 1317.48,35 1323,35 "/>
<path vector-effect="non-scaling-stroke" fill-rule="evenodd" d="M1527,35 L1707,35 C1712.52,35 1717,39.48 1717,45 L1717,105 C1717,110.52 1712.52,115 1707,115 L1527,115 C1521.48,115 1517,110.52 1517,105 L1517,45 C1517,39.48 1521.48,35 1527,35 "/>
<path vector-effect="non-scaling-stroke" fill-rule="evenodd" d="M1731,35 L1911,35 C1916.52,35 1921,39.48 1921,45 L1921,105 C1921,110.52 1916.52,115 1911,115 L1731,115 C1725.48,115 1721,110.52 1721,105 L1721,45 C1721,39.48 1725.48,35 1731,35 "/>
</g>

<g fill="#5dbcb3" fill-opacity="1" stroke="none" transform="matrix(1,0,0,1,0,0)"
font-family="Helvetica" font-size="12" font-weight="400" font-style="normal" 
>
<path vector-effect="non-scaling-stroke" fill-rule="evenodd" d="M21,134 L75,134 C80.52,134 85,138.48 85,144 L85,524 C85,529.52 80.52,534 75,534 L21,534 C15.48,534 11,529.52 11,524 L11,144 C11,138.48 15.48,134 21,134 "/>
<path vector-effect="non-scaling-stroke" fill-rule="evenodd" d="M99,121 L279,121 C284.52,121 289,125.48 289,131 L289,251 C289,256.52 284.52,261 279,261 L99,261 C93.48,261 89,256.52 89,251 L89,131 C89,125.48 93.48,121 99,121 "/>
<path vector-effect="non-scaling-stroke" fill-rule="evenodd" d="M303,121 L483,121 C488.52,121 493,125.48 493,131 L493,251 C493,256.52 488.52,261 483,261 L303,261 C297.48,261 293,256.52 293,251 L293,131 C293,125.48 297.48,121 303,121 "/>
<path vector-effect="non-scaling-stroke" fill-rule="evenodd" d="M507,121 L687,121 C692.52,121 697,125.48 697,131 L697,251 C697,256.52 692.52,261 687,261 L507,261 C501.48,261 497,256.52 497,251 L497,131 C497,125.48 501.48,121 507,121 "/>
<path vector-effect="non-scaling-stroke" fill-rule="evenodd" d="M711,121 L891,121 C896.52,121 901,125.48 901,131 L901,251 C901,256.52 896.52,261 891,261 L711,261 C705.48,261 701,256.52 701,251 L701,131 C701,125.48 705.48,121 711,121 "/>
<path vector-effect="non-scaling-stroke" fill-rule="evenodd" d="M915,121 L1095,121 C1100.52,121 1105,125.48 1105,131 L1105,251 C1105,256.52 1100.52,261 1095,261 L915,261 C909.48,261 905,256.52 905,251 L905,131 C905,125.48 909.48,121 915,121 "/>
<path vector-effect="non-scaling-stroke" fill-rule="evenodd" d="M1119,121 L1299,121 C1304.52,121 1309,125.48 1309,131 L1309,251 C1309,256.52 1304.52,261 1299,261 L1119,261 C1113.48,261 1109,256.52 1109,251 L1109,131 C1109,125.48 1113.48,121 1119,121 "/>
<path vector-effect="non-scaling-stroke" fill-rule="evenodd" d="M1323,121 L1503,121 C1508.52,121 1513,125.48 1513,131 L1513,251 C1513,256.52 1508.52,261 1503,261 L1323,261 C1317.48,261 1313,256.52 1313,251 L1313,131 C1313,125.48 1317.48,121 1323,121 "/>
<path vector-effect="non-scaling-stroke" fill-rule="evenodd" d="M1527,121 L1707,121 C1712.52,121 1717,125.48 1717,131 L1717,251 C1717,256.52 1712.52,261 1707,261 L1527,261 C1521.48,261 1517,256.52 1517,251 L1517,131 C1517,125.48 1521.48,121 1527,121 "/>
<path vector-effect="non-scaling-stroke" fill-rule="evenodd" d="M1731,121 L1911,121 C1916.52,121 1921,125.48 1921,131 L1921,251 C1921,256.52 1916.52,261 1911,261 L1731,261 C1725.48,261 1721,256.52 1721,251 L1721,131 C1721,125.48 1725.48,121 1731,121 "/>
<path vector-effect="non-scaling-stroke" fill-rule="evenodd" d="M99,265 L279,265 C284.52,265 289,269.48 289,275 L289,395 C289,400.52 284.52,405 279,405 L99,405 C93.48,405 89,400.52 89,395 L89,275 C89,269.48 93.48,265 99,265 "/>
<path vector-effect="non-scaling-stroke" fill-rule="evenodd" d="M303,265 L483,265 C488.52,265 493,269.48 493,275 L493,395 C493,400.52 488.52,405 483,405 L303,405 C297.48,405 293,400.52 293,395 L293,275 C293,269.48 297.48,265 303,265 "/>
<path vector-effect="non-scaling-stroke" fill-rule="evenodd" d="M507,265 L687,265 C692.52,265 697,269.48 697,275 L697,395 C697,400.52 692.52,405 687,405 L507,405 C501.48,405 497,400.52 497,395 L497,275 C497,269.48 501.48,265 507,265 "/>
<path vector-effect="non-scaling-stroke" fill-rule="evenodd" d="M711,265 L891,265 C896.52,265 901,269.48 901,275 L901,395 C901,400.52 896.52,405 891,405 L711,405 C705.48,405 701,400.52 701,395 L701,275 C701,269.48 705.48,265 711,265 "/>
<path vector-effect="non-scaling-stroke" fill-rule="evenodd" d="M915,265 L1095,265 C1100.52,265 1105,269.48 1105,275 L1105,395 C1105,400.52 1100.52,405 1095,405 L915,405 C909.48,405 905,400.52 905,395 L905,275 C905,269.48 909.48,265 915,265 "/>
<path vector-effect="non-scaling-stroke" fill-rule="evenodd" d="M1119,265 L1299,265 C1304.52,265 1309,269.48 1309,275 L1309,395 C1309,400.52 1304.52,405 1299,405 L1119,405 C1113.48,405 1109,400.52 1109,395 L1109,275 C1109,269.48 1113.48,265 1119,265 "/>
<path vector-effect="non-scaling-stroke" fill-rule="evenodd" d="M1323,265 L1503,265 C1508.52,265 1513,269.48 1513,275 L1513,395 C1513,400.52 1508.52,405 1503,405 L1323,405 C1317.48,405 1313,400.52 1313,395 L1313,275 C1313,269.48 1317.48,265 1323,265 "/>
<path vector-effect="non-scaling-stroke" fill-rule="evenodd" d="M1731,265 L1911,265 C1916.52,265 1921,269.48 1921,275 L1921,395 C1921,400.52 1916.52,405 1911,405 L1731,405 C1725.48,405 1721,400.52 1721,395 L1721,275 C1721,269.48 1725.48,265 1731,265 "/>
<path vector-effect="non-scaling-stroke" fill-rule="evenodd" d="M99,409 L279,409 C284.52,409 289,413.48 289,419 L289,539 C289,544.52 284.52,549 279,549 L99,549 C93.48,549 89,544.52 89,539 L89,419 C89,413.48 93.48,409 99,409 "/>
<path vector-effect="non-scaling-stroke" fill-rule="evenodd" d="M507,409 L687,409 C692.52,409 697,413.48 697,419 L697,539 C697,544.52 692.52,549 687,549 L507,549 C501.48,549 497,544.52 497,539 L497,419 C497,413.48 501.48,409 507,409 "/>
<path vector-effect="non-scaling-stroke" fill-rule="evenodd" d="M915,409 L1095,409 C1100.52,409 1105,413.48 1105,419 L1105,539 C1105,544.52 1100.52,549 1095,549 L915,549 C909.48,549 905,544.52 905,539 L905,419 C905,413.48 909.48,409 915,409 "/>
<path vector-effect="non-scaling-stroke" fill-rule="evenodd" d="M1119,409 L1299,409 C1304.52,409 1309,413.48 1309,419 L1309,539 C1309,544.52 1304.52,549 1299,549 L1119,549 C1113.48,549 1109,544.52 1109,539 L1109,419 C1109,413.48 1113.48,409 1119,409 "/>
<path vector-effect="non-scaling-stroke" fill-rule="evenodd" d="M1323,409 L1503,409 C1508.52,409 1513,413.48 1513,419 L1513,539 C1513,544.52 1508.52,549 1503,549 L1323,549 C1317.48,549 1313,544.52 1313,539 L1313,419 C1313,413.48 1317.48,409 1323,409 "/>
</g>

<g fill="#e08131" fill-opacity="1" stroke="none" transform="matrix(1,0,0,1,0,0)"
font-family="Helvetica" font-size="12" font-weight="400" font-style="normal" 
>
<path vector-effect="non-scaling-stroke" fill-rule="evenodd" d="M21,568 L75,568 C80.52,568 85,572.48 85,578 L85,958 C85,963.52 80.52,968 75,968 L21,968 C15.48,968 11,963.52 11,958 L11,578 C11,572.48 15.48,568 21,568 "/>
<path vector-effect="non-scaling-stroke" fill-rule="evenodd" d="M99,555 L279,555 C284.52,555 289,559.48 289,565 L289,685 C289,690.52 284.52,695 279,695 L99,695 C93.48,695 89,690.52 89,685 L89,565 C89,559.48 93.48,555 99,555 "/>
<path vector-effect="non-scaling-stroke" fill-rule="evenodd" d="M303,555 L483,555 C488.52,555 493,559.48 493,565 L493,685 C493,690.52 488.52,695 483,695 L303,695 C297.48,695 293,690.52 293,685 L293,565 C293,559.48 297.48,555 303,555 "/>
<path vector-effect="non-scaling-stroke" fill-rule="evenodd" d="M507,555 L687,555 C692.52,555 697,559.48 697,565 L697,685 C697,690.52 692.52,695 687,695 L507,695 C501.48,695 497,690.52 497,685 L497,565 C497,559.48 501.48,555 507,555 "/>
<path vector-effect="non-scaling-stroke" fill-rule="evenodd" d="M711,555 L891,555 C896.52,555 901,559.48 901,565 L901,685 C901,690.52 896.52,695 891,695 L711,695 C705.48,695 701,690.52 701,685 L701,565 C701,559.48 705.48,555 711,555 "/>
<path vector-effect="non-scaling-stroke" fill-rule="evenodd" d="M915,555 L1095,555 C1100.52,555 1105,559.48 1105,565 L1105,685 C1105,690.52 1100.52,695 1095,695 L915,695 C909.48,695 905,690.52 905,685 L905,565 C905,559.48 909.48,555 915,555 "/>
<path vector-effect="non-scaling-stroke" fill-rule="evenodd" d="M1119,555 L1299,555 C1304.52,555 1309,559.48 1309,565 L1309,685 C1309,690.52 1304.52,695 1299,695 L1119,695 C1113.48,695 1109,690.52 1109,685 L1109,565 C1109,559.48 1113.48,555 1119,555 "/>
<path vector-effect="non-scaling-stroke" fill-rule="evenodd" d="M1323,555 L1503,555 C1508.52,555 1513,559.48 1513,565 L1513,685 C1513,690.52 1508.52,695 1503,695 L1323,695 C1317.48,695 1313,690.52 1313,685 L1313,565 C1313,559.48 1317.48,555 1323,555 "/>
<path vector-effect="non-scaling-stroke" fill-rule="evenodd" d="M99,699 L279,699 C284.52,699 289,703.48 289,709 L289,829 C289,834.52 284.52,839 279,839 L99,839 C93.48,839 89,834.52 89,829 L89,709 C89,703.48 93.48,699 99,699 "/>
<path vector-effect="non-scaling-stroke" fill-rule="evenodd" d="M303,699 L483,699 C488.52,699 493,703.48 493,709 L493,829 C493,834.52 488.52,839 483,839 L303,839 C297.48,839 293,834.52 293,829 L293,709 C293,703.48 297.48,699 303,699 "/>
<path vector-effect="non-scaling-stroke" fill-rule="evenodd" d="M507,699 L687,699 C692.52,699 697,703.48 697,709 L697,829 C697,834.52 692.52,839 687,839 L507,839 C501.48,839 497,834.52 497,829 L497,709 C497,703.48 501.48,699 507,699 "/>
<path vector-effect="non-scaling-stroke" fill-rule="evenodd" d="M711,699 L891,699 C896.52,699 901,703.48 901,709 L901,829 C901,834.52 896.52,839 891,839 L711,839 C705.48,839 701,834.52 701,829 L701,709 C701,703.48 705.48,699 711,699 "/>
<path vector-effect="non-scaling-stroke" fill-rule="evenodd" d="M915,699 L1095,699 C1100.52,699 1105,703.48 1105,709 L1105,829 C1105,834.52 1100.52,839 1095,839 L915,839 C909.48,839 905,834.52 905,829 L905,709 C905,703.48 909.48,699 915,699 "/>
<path vector-effect="non-scaling-stroke" fill-rule="evenodd" d="M1119,699 L1299,699 C1304.52,699 1309,703.48 1309,709 L1309,829 C1309,834.52 1304.52,839 1299,839 L1119,839 C1113.48,839 1109,834.52 1109,829 L1109,709 C1109,703.48 1113.48,699 1119,699 "/>
<path vector-effect="non-scaling-stroke" fill-rule="evenodd" d="M1119,843 L1299,843 C1304.52,843 1309,847.48 1309,853 L1309,973 C1309,978.52 1304.52,983 1299,983 L1119,983 C1113.48,983 1109,978.52 1109,973 L1109,853 C1109,847.48 1113.48,843 1119,843 "/>
</g>

<g fill="#972475" fill-opacity="1" stroke="none" transform="matrix(1,0,0,1,0,0)"
font-family="Helvetica" font-size="12" font-weight="400" font-style="normal" 
>
<path vector-effect="non-scaling-stroke" fill-rule="evenodd" d="M21,1002 L75,1002 C80.52,1002 85,1006.48 85,1012 L85,1392 C85,1397.52 80.52,1402 75,1402 L21,1402 C15.48,1402 11,1397.52 11,1392 L11,1012 C11,1006.48 15.48,1002 21,1002 "/>
<path vector-effect="non-scaling-stroke" fill-rule="evenodd" d="M303,989 L483,989 C488.52,989 493,993.48 493,999 L493,1119 C493,1124.52 488.52,1129 483,1129 L303,1129 C297.48,1129 293,1124.52 293,1119 L293,999 C293,993.48 297.48,989 303,989 "/>
<path vector-effect="non-scaling-stroke" fill-rule="evenodd" d="M507,989 L687,989 C692.52,989 697,993.48 697,999 L697,1119 C697,1124.52 692.52,1129 687,1129 L507,1129 C501.48,1129 497,1124.52 497,1119 L497,999 C497,993.48 501.48,989 507,989 "/>
<path vector-effect="non-scaling-stroke" fill-rule="evenodd" d="M711,989 L891,989 C896.52,989 901,993.48 901,999 L901,1119 C901,1124.52 896.52,1129 891,1129 L711,1129 C705.48,1129 701,1124.52 701,1119 L701,999 C701,993.48 705.48,989 711,989 "/>
<path vector-effect="non-scaling-stroke" fill-rule="evenodd" d="M915,989 L1095,989 C1100.52,989 1105,993.48 1105,999 L1105,1119 C1105,1124.52 1100.52,1129 1095,1129 L915,1129 C909.48,1129 905,1124.52 905,1119 L905,999 C905,993.48 909.48,989 915,989 "/>
<path vector-effect="non-scaling-stroke" fill-rule="evenodd" d="M1323,989 L1503,989 C1508.52,989 1513,993.48 1513,999 L1513,1119 C1513,1124.52 1508.52,1129 1503,1129 L1323,1129 C1317.48,1129 1313,1124.52 1313,1119 L1313,999 C1313,993.48 1317.48,989 1323,989 "/>
<path vector-effect="non-scaling-stroke" fill-rule="evenodd" d="M711,1133 L891,1133 C896.52,1133 901,1137.48 901,1143 L901,1263 C901,1268.52 896.52,1273 891,1273 L711,1273 C705.48,1273 701,1268.52 701,1263 L701,1143 C701,1137.48 705.48,1133 711,1133 "/>
<path vector-effect="non-scaling-stroke" fill-rule="evenodd" d="M915,1133 L1095,1133 C1100.52,1133 1105,1137.48 1105,1143 L1105,1263 C1105,1268.52 1100.52,1273 1095,1273 L915,1273 C909.48,1273 905,1268.52 905,1263 L905,1143 C905,1137.48 909.48,1133 915,1133 "/>
<path vector-effect="non-scaling-stroke" fill-rule="evenodd" d="M1323,1133 L1503,1133 C1508.52,1133 1513,1137.48 1513,1143 L1513,1263 C1513,1268.52 1508.52,1273 1503,1273 L1323,1273 C1317.48,1273 1313,1268.52 1313,1263 L1313,1143 C1313,1137.48 1317.48,1133 1323,1133 "/>
<path vector-effect="non-scaling-stroke" fill-rule="evenodd" d="M711,1277 L891,1277 C896.52,1277 901,1281.48 901,1287 L901,1407 C901,1412.52 896.52,1417 891,1417 L711,1417 C705.48,1417 701,1412.52 701,1407 L701,1287 C701,1281.48 705.48,1277 711,1277 "/>
</g>

<g fill="#ffffff" fill-opacity="1" stroke="#ffffff" stroke-opacity="1" stroke-width="1" stroke-linecap="square" stroke-linejoin="bevel" transform="matrix(1,0,0,1,0,0)"
font-family="Arial" font-size="16" font-weight="700" font-style="normal" 
>
<text fill="#ffffff" fill-opacity="1" stroke="none" xml:space="preserve" x="865" y="25" font-family="Arial" font-size="16" font-weight="700" font-style="normal" 
 >CARRERA DE PREGRADO</text>
<text fill="#ffffff" fill-opacity="1" stroke="none" xml:space="preserve" x="99" y="59" font-family="Arial" font-size="16" font-weight="700" font-style="normal" 
 >Nivel 1</text>
<text fill="#ffffff" fill-opacity="1" stroke="none" xml:space="preserve" x="303" y="59" font-family="Arial" font-size="16" font-weight="700" font-style="normal" 
 >Nivel 2</text>
<text fill="#ffffff" fill-opacity="1" stroke="none" xml:space="preserve" x="507" y="59" font-family="Arial" font-size="16" font-weight="700" font-style="normal" 
 >Nivel 3</text>
<text fill="#ffffff" fill-opacity="1" stroke="none" xml:space="preserve" x="711" y="59" font-family="Arial" font-size="16" font-weight="700" font-style="normal" 
 >Nivel 4</text>
<text fill="#ffffff" fill-opacity="1" stroke="none" xml:space="preserve" x="915" y="59" font-family="Arial" font-size="16" font-weight="700" font-style="normal" 
 >Nivel 5</text>
<text fill="#ffffff" fill-opacity="1" stroke="none" xml:space="preserve" x="1119" y="59" font-family="Arial" font-size="16" font-weight="700" font-style="normal" 
 >Nivel 6</text>
<text fill="#ffffff" fill-opacity="1" stroke="none" xml:space="preserve" x="1323" y="59" font-family="Arial" font-size="16" font-weight="700" font-style="normal" 
 >Nivel 7</text>
<text fill="#ffffff" fill-opacity="1" stroke="none" xml:space="preserve" x="1527" y="59" font-family="Arial" font-size="16" font-weight="700" font-style="normal" 
 >Nivel 8</text>
<text fill="#ffffff" fill-opacity="1" stroke="none" xml:space="preserve" x="1731" y="59" font-family="Arial" font-size="16" font-weight="700" font-style="normal" 
 >Nivel 9</text>
</g>

<g fill="#ffffff" fill-opacity="1" stroke="#ffffff" stroke-opacity="1" stroke-width="1" stroke-linecap="square" stroke-linejoin="bevel" transform="matrix(1,0,0,1,0,0)"
font-family="Arial" font-size="16" font-weight="400" font-style="normal" 
>
<text fill="#ffffff" fill-opacity="1" stroke="none" xml:space="preserve" x="11" y="148" font-family="Arial" font-size="16" font-weight="400" font-style="normal" 
 >Específica</text>
<text fill="#ffffff" fill-opacity="1" stroke="none" xml:space="preserve" x="99" y="145" font-family="Arial" font-size="16" font-weight="400" font-style="normal" 
 >PRIUEBA</text>
<text fill="#ffffff" fill-opacity="1" stroke="none" xml:space="preserve" x="303" y="145" font-family="Arial" font-size="16" font-weight="400" font-style="normal" 
 >TALLER DE CINE II</text>
<text fill="#ffffff" fill-opacity="1" stroke="none" xml:space="preserve" x="507" y="145" font-family="Arial" font-size="16" font-weight="400" font-style="normal" 
 >TALLER DE CINE III</text>
<text fill="#ffffff" fill-opacity="1" stroke="none" xml:space="preserve" x="711" y="145" font-family="Arial" font-size="16" font-weight="400" font-style="normal" 
 >TALLER DE CINE IV</text>
<text fill="#ffffff" fill-opacity="1" stroke="none" xml:space="preserve" x="915" y="145" font-family="Arial" font-size="16" font-weight="400" font-style="normal" 
 >TALLER DE CINE V</text>
<text fill="#ffffff" fill-opacity="1" stroke="none" xml:space="preserve" x="1119" y="145" font-family="Arial" font-size="16" font-weight="400" font-style="normal" 
 >CINE CHILENO Y</text>
<text fill="#ffffff" fill-opacity="1" stroke="none" xml:space="preserve" x="1119" y="163" font-family="Arial" font-size="16" font-weight="400" font-style="normal" 
 >LATINOAMERICANO</text>
<text fill="#ffffff" fill-opacity="1" stroke="none" xml:space="preserve" x="1323" y="145" font-family="Arial" font-size="16" font-weight="400" font-style="normal" 
 >TALLER DE CINE VII</text>
<text fill="#ffffff" fill-opacity="1" stroke="none" xml:space="preserve" x="1527" y="145" font-family="Arial" font-size="16" font-weight="400" font-style="normal" 
 >TALLER DE</text>
<text fill="#ffffff" fill-opacity="1" stroke="none" xml:space="preserve" x="1527" y="163" font-family="Arial" font-size="16" font-weight="400" font-style="normal" 
 >TITULACIÓN II</text>
<text fill="#ffffff" fill-opacity="1" stroke="none" xml:space="preserve" x="1731" y="145" font-family="Arial" font-size="16" font-weight="400" font-style="normal" 
 >TALLER DE</text>
<text fill="#ffffff" fill-opacity="1" stroke="none" xml:space="preserve" x="1731" y="163" font-family="Arial" font-size="16" font-weight="400" font-style="normal" 
 >TITULACIÓN III</text>
<text fill="#ffffff" fill-opacity="1" stroke="none" xml:space="preserve" x="99" y="289" font-family="Arial" font-size="16" font-weight="400" font-style="normal" 
 >TALLER DE CINE I</text>
<text fill="#ffffff" fill-opacity="1" stroke="none" xml:space="preserve" x="303" y="289" font-family="Arial" font-size="16" font-weight="400" font-style="normal" 
 >GUION</text>
<text fill="#ffffff" fill-opacity="1" stroke="none" xml:space="preserve" x="303" y="307" font-family="Arial" font-size="16" font-weight="400" font-style="normal" 
 >CINEMATOGRÁFICO I</text>
<text fill="#ffffff" fill-opacity="1" stroke="none" xml:space="preserve" x="507" y="289" font-family="Arial" font-size="16" font-weight="400" font-style="normal" 
 >HISTORIA DEL CINE I</text>
<text fill="#ffffff" fill-opacity="1" stroke="none" xml:space="preserve" x="711" y="289" font-family="Arial" font-size="16" font-weight="400" font-style="normal" 
 >HISTORIA DEL CINE II</text>
<text fill="#ffffff" fill-opacity="1" stroke="none" xml:space="preserve" x="915" y="289" font-family="Arial" font-size="16" font-weight="400" font-style="normal" 
 >FILOSOFÍA Y CINE</text>
<text fill="#ffffff" fill-opacity="1" stroke="none" xml:space="preserve" x="1119" y="289" font-family="Arial" font-size="16" font-weight="400" font-style="normal" 
 >DESARROLLO DE</text>
<text fill="#ffffff" fill-opacity="1" stroke="none" xml:space="preserve" x="1119" y="307" font-family="Arial" font-size="16" font-weight="400" font-style="normal" 
 >GUION</text>
<text fill="#ffffff" fill-opacity="1" stroke="none" xml:space="preserve" x="1323" y="289" font-family="Arial" font-size="16" font-weight="400" font-style="normal" 
 >TALLER DE</text>
<text fill="#ffffff" fill-opacity="1" stroke="none" xml:space="preserve" x="1323" y="307" font-family="Arial" font-size="16" font-weight="400" font-style="normal" 
 >TITULACIÓN I</text>
<text fill="#ffffff" fill-opacity="1" stroke="none" xml:space="preserve" x="1731" y="289" font-family="Arial" font-size="16" font-weight="400" font-style="normal" 
 >PRÁCTICA</text>
<text fill="#ffffff" fill-opacity="1" stroke="none" xml:space="preserve" x="1731" y="307" font-family="Arial" font-size="16" font-weight="400" font-style="normal" 
 >PROFESIONAL</text>
<text fill="#ffffff" fill-opacity="1" stroke="none" xml:space="preserve" x="99" y="433" font-family="Arial" font-size="16" font-weight="400" font-style="normal" 
 >DRAMATURGIA Y</text>
<text fill="#ffffff" fill-opacity="1" stroke="none" xml:space="preserve" x="99" y="451" font-family="Arial" font-size="16" font-weight="400" font-style="normal" 
 >ESTRUCTURA</text>
<text fill="#ffffff" fill-opacity="1" stroke="none" xml:space="preserve" x="99" y="469" font-family="Arial" font-size="16" font-weight="400" font-style="normal" 
 >DRAMÁTICA</text>
<text fill="#ffffff" fill-opacity="1" stroke="none" xml:space="preserve" x="507" y="433" font-family="Arial" font-size="16" font-weight="400" font-style="normal" 
 >GUION</text>
<text fill="#ffffff" fill-opacity="1" stroke="none" xml:space="preserve" x="507" y="451" font-family="Arial" font-size="16" font-weight="400" font-style="normal" 
 >CINEMATOGRÁFICO II</text>
<text fill="#ffffff" fill-opacity="1" stroke="none" xml:space="preserve" x="915" y="433" font-family="Arial" font-size="16" font-weight="400" font-style="normal" 
 >INVEST. Y GUION</text>
<text fill="#ffffff" fill-opacity="1" stroke="none" xml:space="preserve" x="915" y="451" font-family="Arial" font-size="16" font-weight="400" font-style="normal" 
 >PARA SERIES DE</text>
<text fill="#ffffff" fill-opacity="1" stroke="none" xml:space="preserve" x="915" y="469" font-family="Arial" font-size="16" font-weight="400" font-style="normal" 
 >FICCIÓN</text>
<text fill="#ffffff" fill-opacity="1" stroke="none" xml:space="preserve" x="1119" y="433" font-family="Arial" font-size="16" font-weight="400" font-style="normal" 
 >TALLER DE CINE VI</text>
<text fill="#ffffff" fill-opacity="1" stroke="none" xml:space="preserve" x="1323" y="433" font-family="Arial" font-size="16" font-weight="400" font-style="normal" 
 >FORO DE CINE</text>
<text fill="#ffffff" fill-opacity="1" stroke="none" xml:space="preserve" x="1323" y="451" font-family="Arial" font-size="16" font-weight="400" font-style="normal" 
 >ACTUAL</text>
<text fill="#ffffff" fill-opacity="1" stroke="none" xml:space="preserve" x="11" y="582" font-family="Arial" font-size="16" font-weight="400" font-style="normal" 
 >Básica</text>
<text fill="#ffffff" fill-opacity="1" stroke="none" xml:space="preserve" x="99" y="579" font-family="Arial" font-size="16" font-weight="400" font-style="normal" 
 >REFERENTES EST.</text>
<text fill="#ffffff" fill-opacity="1" stroke="none" xml:space="preserve" x="99" y="597" font-family="Arial" font-size="16" font-weight="400" font-style="normal" 
 >ARTE</text>
<text fill="#ffffff" fill-opacity="1" stroke="none" xml:space="preserve" x="99" y="615" font-family="Arial" font-size="16" font-weight="400" font-style="normal" 
 >CONTEMPORÁNEO</text>
<text fill="#ffffff" fill-opacity="1" stroke="none" xml:space="preserve" x="303" y="579" font-family="Arial" font-size="16" font-weight="400" font-style="normal" 
 >DIRECCIÓN DE</text>
<text fill="#ffffff" fill-opacity="1" stroke="none" xml:space="preserve" x="303" y="597" font-family="Arial" font-size="16" font-weight="400" font-style="normal" 
 >ACTUACIÓN I</text>
<text fill="#ffffff" fill-opacity="1" stroke="none" xml:space="preserve" x="507" y="579" font-family="Arial" font-size="16" font-weight="400" font-style="normal" 
 >INVESTIGACIÓN PARA</text>
<text fill="#ffffff" fill-opacity="1" stroke="none" xml:space="preserve" x="507" y="597" font-family="Arial" font-size="16" font-weight="400" font-style="normal" 
 >LA CREACIÓN</text>
<text fill="#ffffff" fill-opacity="1" stroke="none" xml:space="preserve" x="507" y="615" font-family="Arial" font-size="16" font-weight="400" font-style="normal" 
 >ARTÍSTICA</text>
<text fill="#ffffff" fill-opacity="1" stroke="none" xml:space="preserve" x="711" y="579" font-family="Arial" font-size="16" font-weight="400" font-style="normal" 
 >BANDA SONORA</text>
<text fill="#ffffff" fill-opacity="1" stroke="none" xml:space="preserve" x="915" y="579" font-family="Arial" font-size="16" font-weight="400" font-style="normal" 
 >DIRECCIÓN DE</text>
<text fill="#ffffff" fill-opacity="1" stroke="none" xml:space="preserve" x="915" y="597" font-family="Arial" font-size="16" font-weight="400" font-style="normal" 
 >ACTUACIÓN II</text>
<text fill="#ffffff" fill-opacity="1" stroke="none" xml:space="preserve" x="1119" y="579" font-family="Arial" font-size="16" font-weight="400" font-style="normal" 
 >DISEÑO DE SONIDO</text>
<text fill="#ffffff" fill-opacity="1" stroke="none" xml:space="preserve" x="1323" y="579" font-family="Arial" font-size="16" font-weight="400" font-style="normal" 
 >DES. Y DISTRIBUCIÓN</text>
<text fill="#ffffff" fill-opacity="1" stroke="none" xml:space="preserve" x="1323" y="597" font-family="Arial" font-size="16" font-weight="400" font-style="normal" 
 >CINEMATOGRÁFICA</text>
<text fill="#ffffff" fill-opacity="1" stroke="none" xml:space="preserve" x="99" y="723" font-family="Arial" font-size="16" font-weight="400" font-style="normal" 
 >EDICIÓN DIGITAL</text>
<text fill="#ffffff" fill-opacity="1" stroke="none" xml:space="preserve" x="303" y="723" font-family="Arial" font-size="16" font-weight="400" font-style="normal" 
 >MONTAJE</text>
<text fill="#ffffff" fill-opacity="1" stroke="none" xml:space="preserve" x="303" y="741" font-family="Arial" font-size="16" font-weight="400" font-style="normal" 
 >CINEMATOGRÁFICO</text>
<text fill="#ffffff" fill-opacity="1" stroke="none" xml:space="preserve" x="507" y="723" font-family="Arial" font-size="16" font-weight="400" font-style="normal" 
 >DIRECCIÓN DE ARTE I</text>
<text fill="#ffffff" fill-opacity="1" stroke="none" xml:space="preserve" x="711" y="723" font-family="Arial" font-size="16" font-weight="400" font-style="normal" 
 >DIRECCIÓN DE ARTE II</text>
<text fill="#ffffff" fill-opacity="1" stroke="none" xml:space="preserve" x="915" y="723" font-family="Arial" font-size="16" font-weight="400" font-style="normal" 
 >DIRECCIÓN DE</text>
<text fill="#ffffff" fill-opacity="1" stroke="none" xml:space="preserve" x="915" y="741" font-family="Arial" font-size="16" font-weight="400" font-style="normal" 
 >FOTOGRAFÍA</text>
<text fill="#ffffff" fill-opacity="1" stroke="none" xml:space="preserve" x="915" y="759" font-family="Arial" font-size="16" font-weight="400" font-style="normal" 
 >(ATMÓSFERA)</text>
<text fill="#ffffff" fill-opacity="1" stroke="none" xml:space="preserve" x="1119" y="723" font-family="Arial" font-size="16" font-weight="400" font-style="normal" 
 >PRODUCCIÓN Y EMP..</text>
<text fill="#ffffff" fill-opacity="1" stroke="none" xml:space="preserve" x="1119" y="741" font-family="Arial" font-size="16" font-weight="400" font-style="normal" 
 >CINEMATOGRÁFICO</text>
<text fill="#ffffff" fill-opacity="1" stroke="none" xml:space="preserve" x="1119" y="867" font-family="Arial" font-size="16" font-weight="400" font-style="normal" 
 >POST PRODUCCIÓN</text>
<text fill="#ffffff" fill-opacity="1" stroke="none" xml:space="preserve" x="1119" y="885" font-family="Arial" font-size="16" font-weight="400" font-style="normal" 
 >DE IMAGEN</text>
<text fill="#ffffff" fill-opacity="1" stroke="none" xml:space="preserve" x="11" y="1016" font-family="Arial" font-size="16" font-weight="400" font-style="normal" 
 >Electiva</text>
<text fill="#ffffff" fill-opacity="1" stroke="none" xml:space="preserve" x="303" y="1013" font-family="Arial" font-size="16" font-weight="400" font-style="normal" 
 >ELECTIVO 1 CINE</text>
<text fill="#ffffff" fill-opacity="1" stroke="none" xml:space="preserve" x="507" y="1013" font-family="Arial" font-size="16" font-weight="400" font-style="normal" 
 >PROCS. CREATIVOS,</text>
<text fill="#ffffff" fill-opacity="1" stroke="none" xml:space="preserve" x="507" y="1031" font-family="Arial" font-size="16" font-weight="400" font-style="normal" 
 >REF. DE TRANSF.</text>
<text fill="#ffffff" fill-opacity="1" stroke="none" xml:space="preserve" x="507" y="1049" font-family="Arial" font-size="16" font-weight="400" font-style="normal" 
 >SOCIAL</text>
<text fill="#ffffff" fill-opacity="1" stroke="none" xml:space="preserve" x="711" y="1013" font-family="Arial" font-size="16" font-weight="400" font-style="normal" 
 >HISTORIA Y FILOSOFÍA</text>
<text fill="#ffffff" fill-opacity="1" stroke="none" xml:space="preserve" x="711" y="1031" font-family="Arial" font-size="16" font-weight="400" font-style="normal" 
 >DEL ARTE</text>
<text fill="#ffffff" fill-opacity="1" stroke="none" xml:space="preserve" x="915" y="1013" font-family="Arial" font-size="16" font-weight="400" font-style="normal" 
 >LABORATORIO</text>
<text fill="#ffffff" fill-opacity="1" stroke="none" xml:space="preserve" x="915" y="1031" font-family="Arial" font-size="16" font-weight="400" font-style="normal" 
 >CREACIÓN</text>
<text fill="#ffffff" fill-opacity="1" stroke="none" xml:space="preserve" x="915" y="1049" font-family="Arial" font-size="16" font-weight="400" font-style="normal" 
 >EXPERIMENTAL</text>
<text fill="#ffffff" fill-opacity="1" stroke="none" xml:space="preserve" x="1323" y="1013" font-family="Arial" font-size="16" font-weight="400" font-style="normal" 
 >ELECTIVO 3 CINE</text>
<text fill="#ffffff" fill-opacity="1" stroke="none" xml:space="preserve" x="711" y="1157" font-family="Arial" font-size="16" font-weight="400" font-style="normal" 
 >CULTURA, ÉTICA E</text>
<text fill="#ffffff" fill-opacity="1" stroke="none" xml:space="preserve" x="711" y="1175" font-family="Arial" font-size="16" font-weight="400" font-style="normal" 
 >INT. EN CONTEXTO</text>
<text fill="#ffffff" fill-opacity="1" stroke="none" xml:space="preserve" x="711" y="1193" font-family="Arial" font-size="16" font-weight="400" font-style="normal" 
 >GLOBAL</text>
<text fill="#ffffff" fill-opacity="1" stroke="none" xml:space="preserve" x="915" y="1157" font-family="Arial" font-size="16" font-weight="400" font-style="normal" 
 >CLIMA, SALUD &amp;</text>
<text fill="#ffffff" fill-opacity="1" stroke="none" xml:space="preserve" x="915" y="1175" font-family="Arial" font-size="16" font-weight="400" font-style="normal" 
 >MIGRACIÓN</text>
<text fill="#ffffff" fill-opacity="1" stroke="none" xml:space="preserve" x="1323" y="1157" font-family="Arial" font-size="16" font-weight="400" font-style="normal" 
 >ELECTIVO 4 CINE</text>
<text fill="#ffffff" fill-opacity="1" stroke="none" xml:space="preserve" x="711" y="1301" font-family="Arial" font-size="16" font-weight="400" font-style="normal" 
 >ELECTIVO 2 CINE</text>
</g>
</g>
</svg>
