<?xml version="1.0" encoding="UTF-8" standalone="no"?>
<svg width="750.711mm" height="817.739mm"
 viewBox="0 0 2128 2318"
 xmlns="http://www.w3.org/2000/svg" xmlns:xlink="http://www.w3.org/1999/xlink"  version="1.2" baseProfile="tiny">
<title>Qt Svg Document</title>
<desc>Generated with Qt</desc>
<defs>
</defs>
<g fill="none" stroke="black" stroke-width="1" fill-rule="evenodd" stroke-linecap="square" stroke-linejoin="bevel" >

<g fill="#ffffff" fill-opacity="1" stroke="none" transform="matrix(1,0,0,1,0,0)"
font-family="Helvetica" font-size="12" font-weight="400" font-style="normal" 
>
<path vector-effect="non-scaling-stroke" fill-rule="evenodd" d="M0,0 L2128,0 L2128,2318 L0,2318 L0,0"/>
<path vector-effect="non-scaling-stroke" fill-rule="evenodd" d="M0,0 L2128,0 L2128,2318 L0,2318 L0,0"/>
</g>

<g fill="#616671" fill-opacity="1" stroke="none" transform="matrix(1,0,0,1,0,0)"
font-family="Helvetica" font-size="12" font-weight="400" font-style="normal" 
>
<path vector-effect="non-scaling-stroke" fill-rule="evenodd" d="M99,35 L279,35 C284.52,35 289,39.48 289,45 L289,105 C289,110.52 284.52,115 279,115 L99,115 C93.48,115 89,110.52 89,105 L89,45 C89,39.48 93.48,35 99,35 "/>
<path vector-effect="non-scaling-stroke" fill-rule="evenodd" d="M303,35 L483,35 C488.52,35 493,39.48 493,45 L493,105 C493,110.52 488.52,115 483,115 L303,115 C297.48,115 293,110.52 293,105 L293,45 C293,39.48 297.48,35 303,35 "/>
<path vector-effect="non-scaling-stroke" fill-rule="evenodd" d="M507,35 L687,35 C692.52,35 697,39.48 697,45 L697,105 C697,110.52 692.52,115 687,115 L507,115 C501.48,115 497,110.52 497,105 L497,45 C497,39.48 501.48,35 507,35 "/>
<path vector-effect="non-scaling-stroke" fill-rule="evenodd" d="M711,35 L891,35 C896.52,35 901,39.48 901,45 L901,105 C901,110.52 896.52,115 891,115 L711,115 C705.48,115 701,110.52 701,105 L701,45 C701,39.48 705.48,35 711,35 "/>
<path vector-effect="non-scaling-stroke" fill-rule="evenodd" d="M915,35 L1095,35 C1100.52,35 1105,39.48 1105,45 L1105,105 C1105,110.52 1100.52,115 1095,115 L915,115 C909.48,115 905,110.52 905,105 L905,45 C905,39.48 909.48,35 915,35 "/>
<path vector-effect="non-scaling-stroke" fill-rule="evenodd" d="M1119,35 L1299,35 C1304.52,35 1309,39.48 1309,45 L1309,105 C1309,110.52 1304.52,115 1299,115 L1119,115 C1113.48,115 1109,110.52 1109,105 L1109,45 C1109,39.48 1113.48,35 1119,35 "/>
<path vector-effect="non-scaling-stroke" fill-rule="evenodd" d="M1323,35 L1503,35 C1508.52,35 1513,39.48 1513,45 L1513,105 C1513,110.52 1508.52,115 1503,115 L1323,115 C1317.48,115 1313,110.52 1313,105 L1313,45 C1313,39.48 1317.48,35 1323,35 "/>
<path vector-effect="non-scaling-stroke" fill-rule="evenodd" d="M1527,35 L1707,35 C1712.52,35 1717,39.48 1717,45 L1717,105 C1717,110.52 1712.52,115 1707,115 L1527,115 C1521.48,115 1517,110.52 1517,105 L1517,45 C1517,39.48 1521.48,35 1527,35 "/>
<path vector-effect="non-scaling-stroke" fill-rule="evenodd" d="M1731,35 L1911,35 C1916.52,35 1921,39.48 1921,45 L1921,105 C1921,110.52 1916.52,115 1911,115 L1731,115 C1725.48,115 1721,110.52 1721,105 L1721,45 C1721,39.48 1725.48,35 1731,35 "/>
<path vector-effect="non-scaling-stroke" fill-rule="evenodd" d="M1935,35 L2115,35 C2120.52,35 2125,39.48 2125,45 L2125,105 C2125,110.52 2120.52,115 2115,115 L1935,115 C1929.48,115 1925,110.52 1925,105 L1925,45 C1925,39.48 1929.48,35 1935,35 "/>
</g>

<g fill="#5dbcb3" fill-opacity="1" stroke="none" transform="matrix(1,0,0,1,0,0)"
font-family="Helvetica" font-size="12" font-weight="400" font-style="normal" 
>
<path vector-effect="non-scaling-stroke" fill-rule="evenodd" d="M21,119 L75,119 C80.52,119 85,123.48 85,129 L85,709 C85,714.52 80.52,719 75,719 L21,719 C15.48,719 11,714.52 11,709 L11,129 C11,123.48 15.48,119 21,119 "/>
<path vector-effect="non-scaling-stroke" fill-rule="evenodd" d="M99,121 L279,121 C284.52,121 289,125.48 289,131 L289,251 C289,256.52 284.52,261 279,261 L99,261 C93.48,261 89,256.52 89,251 L89,131 C89,125.48 93.48,121 99,121 "/>
<path vector-effect="non-scaling-stroke" fill-rule="evenodd" d="M303,121 L483,121 C488.52,121 493,125.48 493,131 L493,251 C493,256.52 488.52,261 483,261 L303,261 C297.48,261 293,256.52 293,251 L293,131 C293,125.48 297.48,121 303,121 "/>
<path vector-effect="non-scaling-stroke" fill-rule="evenodd" d="M507,121 L687,121 C692.52,121 697,125.48 697,131 L697,251 C697,256.52 692.52,261 687,261 L507,261 C501.48,261 497,256.52 497,251 L497,131 C497,125.48 501.48,121 507,121 "/>
<path vector-effect="non-scaling-stroke" fill-rule="evenodd" d="M711,121 L891,121 C896.52,121 901,125.48 901,131 L901,251 C901,256.52 896.52,261 891,261 L711,261 C705.48,261 701,256.52 701,251 L701,131 C701,125.48 705.48,121 711,121 "/>
<path vector-effect="non-scaling-stroke" fill-rule="evenodd" d="M915,121 L1095,121 C1100.52,121 1105,125.48 1105,131 L1105,251 C1105,256.52 1100.52,261 1095,261 L915,261 C909.48,261 905,256.52 905,251 L905,131 C905,125.48 909.48,121 915,121 "/>
<path vector-effect="non-scaling-stroke" fill-rule="evenodd" d="M1119,121 L1299,121 C1304.52,121 1309,125.48 1309,131 L1309,251 C1309,256.52 1304.52,261 1299,261 L1119,261 C1113.48,261 1109,256.52 1109,251 L1109,131 C1109,125.48 1113.48,121 1119,121 "/>
<path vector-effect="non-scaling-stroke" fill-rule="evenodd" d="M1323,121 L1503,121 C1508.52,121 1513,125.48 1513,131 L1513,251 C1513,256.52 1508.52,261 1503,261 L1323,261 C1317.48,261 1313,256.52 1313,251 L1313,131 C1313,125.48 1317.48,121 1323,121 "/>
<path vector-effect="non-scaling-stroke" fill-rule="evenodd" d="M1527,121 L1707,121 C1712.52,121 1717,125.48 1717,131 L1717,251 C1717,256.52 1712.52,261 1707,261 L1527,261 C1521.48,261 1517,256.52 1517,251 L1517,131 C1517,125.48 1521.48,121 1527,121 "/>
<path vector-effect="non-scaling-stroke" fill-rule="evenodd" d="M1731,121 L1911,121 C1916.52,121 1921,125.48 1921,131 L1921,251 C1921,256.52 1916.52,261 1911,261 L1731,261 C1725.48,261 1721,256.52 1721,251 L1721,131 C1721,125.48 1725.48,121 1731,121 "/>
<path vector-effect="non-scaling-stroke" fill-rule="evenodd" d="M1935,121 L2115,121 C2120.52,121 2125,125.48 2125,131 L2125,251 C2125,256.52 2120.52,261 2115,261 L1935,261 C1929.48,261 1925,256.52 1925,251 L1925,131 C1925,125.48 1929.48,121 1935,121 "/>
<path vector-effect="non-scaling-stroke" fill-rule="evenodd" d="M99,265 L279,265 C284.52,265 289,269.48 289,275 L289,395 C289,400.52 284.52,405 279,405 L99,405 C93.48,405 89,400.52 89,395 L89,275 C89,269.48 93.48,265 99,265 "/>
<path vector-effect="non-scaling-stroke" fill-rule="evenodd" d="M303,265 L483,265 C488.52,265 493,269.48 493,275 L493,395 C493,400.52 488.52,405 483,405 L303,405 C297.48,405 293,400.52 293,395 L293,275 C293,269.48 297.48,265 303,265 "/>
<path vector-effect="non-scaling-stroke" fill-rule="evenodd" d="M507,265 L687,265 C692.52,265 697,269.48 697,275 L697,395 C697,400.52 692.52,405 687,405 L507,405 C501.48,405 497,400.52 497,395 L497,275 C497,269.48 501.48,265 507,265 "/>
<path vector-effect="non-scaling-stroke" fill-rule="evenodd" d="M711,265 L891,265 C896.52,265 901,269.48 901,275 L901,395 C901,400.52 896.52,405 891,405 L711,405 C705.48,405 701,400.52 701,395 L701,275 C701,269.48 705.48,265 711,265 "/>
<path vector-effect="non-scaling-stroke" fill-rule="evenodd" d="M915,265 L1095,265 C1100.52,265 1105,269.48 1105,275 L1105,395 C1105,400.52 1100.52,405 1095,405 L915,405 C909.48,405 905,400.52 905,395 L905,275 C905,269.48 909.48,265 915,265 "/>
<path vector-effect="non-scaling-stroke" fill-rule="evenodd" d="M1119,265 L1299,265 C1304.52,265 1309,269.48 1309,275 L1309,395 C1309,400.52 1304.52,405 1299,405 L1119,405 C1113.48,405 1109,400.52 1109,395 L1109,275 C1109,269.48 1113.48,265 1119,265 "/>
<path vector-effect="non-scaling-stroke" fill-rule="evenodd" d="M1323,265 L1503,265 C1508.52,265 1513,269.48 1513,275 L1513,395 C1513,400.52 1508.52,405 1503,405 L1323,405 C1317.48,405 1313,400.52 1313,395 L1313,275 C1313,269.48 1317.48,265 1323,265 "/>
<path vector-effect="non-scaling-stroke" fill-rule="evenodd" d="M1527,265 L1707,265 C1712.52,265 1717,269.48 1717,275 L1717,395 C1717,400.52 1712.52,405 1707,405 L1527,405 C1521.48,405 1517,400.52 1517,395 L1517,275 C1517,269.48 1521.48,265 1527,265 "/>
<path vector-effect="non-scaling-stroke" fill-rule="evenodd" d="M1731,265 L1911,265 C1916.52,265 1921,269.48 1921,275 L1921,395 C1921,400.52 1916.52,405 1911,405 L1731,405 C1725.48,405 1721,400.52 1721,395 L1721,275 C1721,269.48 1725.48,265 1731,265 "/>
<path vector-effect="non-scaling-stroke" fill-rule="evenodd" d="M711,494 L891,494 C896.52,494 901,498.48 901,504 L901,624 C901,629.52 896.52,634 891,634 L711,634 C705.48,634 701,629.52 701,624 L701,504 C701,498.48 705.48,494 711,494 "/>
<path vector-effect="non-scaling-stroke" fill-rule="evenodd" d="M915,494 L1095,494 C1100.52,494 1105,498.48 1105,504 L1105,624 C1105,629.52 1100.52,634 1095,634 L915,634 C909.48,634 905,629.52 905,624 L905,504 C905,498.48 909.48,494 915,494 "/>
<path vector-effect="non-scaling-stroke" fill-rule="evenodd" d="M1119,494 L1299,494 C1304.52,494 1309,498.48 1309,504 L1309,624 C1309,629.52 1304.52,634 1299,634 L1119,634 C1113.48,634 1109,629.52 1109,624 L1109,504 C1109,498.48 1113.48,494 1119,494 "/>
<path vector-effect="non-scaling-stroke" fill-rule="evenodd" d="M1323,494 L1503,494 C1508.52,494 1513,498.48 1513,504 L1513,624 C1513,629.52 1508.52,634 1503,634 L1323,634 C1317.48,634 1313,629.52 1313,624 L1313,504 C1313,498.48 1317.48,494 1323,494 "/>
<path vector-effect="non-scaling-stroke" fill-rule="evenodd" d="M1527,494 L1707,494 C1712.52,494 1717,498.48 1717,504 L1717,624 C1717,629.52 1712.52,634 1707,634 L1527,634 C1521.48,634 1517,629.52 1517,624 L1517,504 C1517,498.48 1521.48,494 1527,494 "/>
</g>

<g fill="#e08131" fill-opacity="1" stroke="none" transform="matrix(1,0,0,1,0,0)"
font-family="Helvetica" font-size="12" font-weight="400" font-style="normal" 
>
<path vector-effect="non-scaling-stroke" fill-rule="evenodd" d="M21,954 L75,954 C80.52,954 85,958.48 85,964 L85,1344 C85,1349.52 80.52,1354 75,1354 L21,1354 C15.48,1354 11,1349.52 11,1344 L11,964 C11,958.48 15.48,954 21,954 "/>
<path vector-effect="non-scaling-stroke" fill-rule="evenodd" d="M99,725 L279,725 C284.52,725 289,729.48 289,735 L289,855 C289,860.52 284.52,865 279,865 L99,865 C93.48,865 89,860.52 89,855 L89,735 C89,729.48 93.48,725 99,725 "/>
<path vector-effect="non-scaling-stroke" fill-rule="evenodd" d="M303,725 L483,725 C488.52,725 493,729.48 493,735 L493,855 C493,860.52 488.52,865 483,865 L303,865 C297.48,865 293,860.52 293,855 L293,735 C293,729.48 297.48,725 303,725 "/>
<path vector-effect="non-scaling-stroke" fill-rule="evenodd" d="M507,725 L687,725 C692.52,725 697,729.48 697,735 L697,855 C697,860.52 692.52,865 687,865 L507,865 C501.48,865 497,860.52 497,855 L497,735 C497,729.48 501.48,725 507,725 "/>
<path vector-effect="non-scaling-stroke" fill-rule="evenodd" d="M711,725 L891,725 C896.52,725 901,729.48 901,735 L901,855 C901,860.52 896.52,865 891,865 L711,865 C705.48,865 701,860.52 701,855 L701,735 C701,729.48 705.48,725 711,725 "/>
<path vector-effect="non-scaling-stroke" fill-rule="evenodd" d="M915,725 L1095,725 C1100.52,725 1105,729.48 1105,735 L1105,855 C1105,860.52 1100.52,865 1095,865 L915,865 C909.48,865 905,860.52 905,855 L905,735 C905,729.48 909.48,725 915,725 "/>
<path vector-effect="non-scaling-stroke" fill-rule="evenodd" d="M99,869 L279,869 C284.52,869 289,873.48 289,879 L289,999 C289,1004.52 284.52,1009 279,1009 L99,1009 C93.48,1009 89,1004.52 89,999 L89,879 C89,873.48 93.48,869 99,869 "/>
<path vector-effect="non-scaling-stroke" fill-rule="evenodd" d="M303,869 L483,869 C488.52,869 493,873.48 493,879 L493,999 C493,1004.52 488.52,1009 483,1009 L303,1009 C297.48,1009 293,1004.52 293,999 L293,879 C293,873.48 297.48,869 303,869 "/>
<path vector-effect="non-scaling-stroke" fill-rule="evenodd" d="M507,869 L687,869 C692.52,869 697,873.48 697,879 L697,999 C697,1004.52 692.52,1009 687,1009 L507,1009 C501.48,1009 497,1004.52 497,999 L497,879 C497,873.48 501.48,869 507,869 "/>
<path vector-effect="non-scaling-stroke" fill-rule="evenodd" d="M99,1013 L279,1013 C284.52,1013 289,1017.48 289,1023 L289,1143 C289,1148.52 284.52,1153 279,1153 L99,1153 C93.48,1153 89,1148.52 89,1143 L89,1023 C89,1017.48 93.48,1013 99,1013 "/>
<path vector-effect="non-scaling-stroke" fill-rule="evenodd" d="M303,1013 L483,1013 C488.52,1013 493,1017.48 493,1023 L493,1143 C493,1148.52 488.52,1153 483,1153 L303,1153 C297.48,1153 293,1148.52 293,1143 L293,1023 C293,1017.48 297.48,1013 303,1013 "/>
<path vector-effect="non-scaling-stroke" fill-rule="evenodd" d="M507,1013 L687,1013 C692.52,1013 697,1017.48 697,1023 L697,1143 C697,1148.52 692.52,1153 687,1153 L507,1153 C501.48,1153 497,1148.52 497,1143 L497,1023 C497,1017.48 501.48,1013 507,1013 "/>
</g>

<g fill="#972475" fill-opacity="1" stroke="none" transform="matrix(1,0,0,1,0,0)"
font-family="Helvetica" font-size="12" font-weight="400" font-style="normal" 
>
<path vector-effect="non-scaling-stroke" fill-rule="evenodd" d="M21,1598 L75,1598 C80.52,1598 85,1602.48 85,1608 L85,2288 C85,2293.52 80.52,2298 75,2298 L21,2298 C15.48,2298 11,2293.52 11,2288 L11,1608 C11,1602.48 15.48,1598 21,1598 "/>
<path vector-effect="non-scaling-stroke" fill-rule="evenodd" d="M303,1591 L483,1591 C488.52,1591 493,1595.48 493,1601 L493,1721 C493,1726.52 488.52,1731 483,1731 L303,1731 C297.48,1731 293,1726.52 293,1721 L293,1601 C293,1595.48 297.48,1591 303,1591 "/>
<path vector-effect="non-scaling-stroke" fill-rule="evenodd" d="M507,1591 L687,1591 C692.52,1591 697,1595.48 697,1601 L697,1721 C697,1726.52 692.52,1731 687,1731 L507,1731 C501.48,1731 497,1726.52 497,1721 L497,1601 C497,1595.48 501.48,1591 507,1591 "/>
<path vector-effect="non-scaling-stroke" fill-rule="evenodd" d="M711,1591 L891,1591 C896.52,1591 901,1595.48 901,1601 L901,1721 C901,1726.52 896.52,1731 891,1731 L711,1731 C705.48,1731 701,1726.52 701,1721 L701,1601 C701,1595.48 705.48,1591 711,1591 "/>
<path vector-effect="non-scaling-stroke" fill-rule="evenodd" d="M915,1591 L1095,1591 C1100.52,1591 1105,1595.48 1105,1601 L1105,1721 C1105,1726.52 1100.52,1731 1095,1731 L915,1731 C909.48,1731 905,1726.52 905,1721 L905,1601 C905,1595.48 909.48,1591 915,1591 "/>
<path vector-effect="non-scaling-stroke" fill-rule="evenodd" d="M1119,1591 L1299,1591 C1304.52,1591 1309,1595.48 1309,1601 L1309,1721 C1309,1726.52 1304.52,1731 1299,1731 L1119,1731 C1113.48,1731 1109,1726.52 1109,1721 L1109,1601 C1109,1595.48 1113.48,1591 1119,1591 "/>
<path vector-effect="non-scaling-stroke" fill-rule="evenodd" d="M1323,1591 L1503,1591 C1508.52,1591 1513,1595.48 1513,1601 L1513,1721 C1513,1726.52 1508.52,1731 1503,1731 L1323,1731 C1317.48,1731 1313,1726.52 1313,1721 L1313,1601 C1313,1595.48 1317.48,1591 1323,1591 "/>
<path vector-effect="non-scaling-stroke" fill-rule="evenodd" d="M507,1735 L687,1735 C692.52,1735 697,1739.48 697,1745 L697,1865 C697,1870.52 692.52,1875 687,1875 L507,1875 C501.48,1875 497,1870.52 497,1865 L497,1745 C497,1739.48 501.48,1735 507,1735 "/>
<path vector-effect="non-scaling-stroke" fill-rule="evenodd" d="M711,1735 L891,1735 C896.52,1735 901,1739.48 901,1745 L901,1865 C901,1870.52 896.52,1875 891,1875 L711,1875 C705.48,1875 701,1870.52 701,1865 L701,1745 C701,1739.48 705.48,1735 711,1735 "/>
<path vector-effect="non-scaling-stroke" fill-rule="evenodd" d="M915,1735 L1095,1735 C1100.52,1735 1105,1739.48 1105,1745 L1105,1865 C1105,1870.52 1100.52,1875 1095,1875 L915,1875 C909.48,1875 905,1870.52 905,1865 L905,1745 C905,1739.48 909.48,1735 915,1735 "/>
<path vector-effect="non-scaling-stroke" fill-rule="evenodd" d="M507,1879 L687,1879 C692.52,1879 697,1883.48 697,1889 L697,2009 C697,2014.52 692.52,2019 687,2019 L507,2019 C501.48,2019 497,2014.52 497,2009 L497,1889 C497,1883.48 501.48,1879 507,1879 "/>
<path vector-effect="non-scaling-stroke" fill-rule="evenodd" d="M711,1879 L891,1879 C896.52,1879 901,1883.48 901,1889 L901,2009 C901,2014.52 896.52,2019 891,2019 L711,2019 C705.48,2019 701,2014.52 701,2009 L701,1889 C701,1883.48 705.48,1879 711,1879 "/>
<path vector-effect="non-scaling-stroke" fill-rule="evenodd" d="M915,1879 L1095,1879 C1100.52,1879 1105,1883.48 1105,1889 L1105,2009 C1105,2014.52 1100.52,2019 1095,2019 L915,2019 C909.48,2019 905,2014.52 905,2009 L905,1889 C905,1883.48 909.48,1879 915,1879 "/>
<path vector-effect="non-scaling-stroke" fill-rule="evenodd" d="M507,2023 L687,2023 C692.52,2023 697,2027.48 697,2033 L697,2153 C697,2158.52 692.52,2163 687,2163 L507,2163 C501.48,2163 497,2158.52 497,2153 L497,2033 C497,2027.48 501.48,2023 507,2023 "/>
<path vector-effect="non-scaling-stroke" fill-rule="evenodd" d="M711,2023 L891,2023 C896.52,2023 901,2027.48 901,2033 L901,2153 C901,2158.52 896.52,2163 891,2163 L711,2163 C705.48,2163 701,2158.52 701,2153 L701,2033 C701,2027.48 705.48,2023 711,2023 "/>
<path vector-effect="non-scaling-stroke" fill-rule="evenodd" d="M915,2023 L1095,2023 C1100.52,2023 1105,2027.48 1105,2033 L1105,2153 C1105,2158.52 1100.52,2163 1095,2163 L915,2163 C909.48,2163 905,2158.52 905,2153 L905,2033 C905,2027.48 909.48,2023 915,2023 "/>
<path vector-effect="non-scaling-stroke" fill-rule="evenodd" d="M507,2167 L687,2167 C692.52,2167 697,2171.48 697,2177 L697,2297 C697,2302.52 692.52,2307 687,2307 L507,2307 C501.48,2307 497,2302.52 497,2297 L497,2177 C497,2171.48 501.48,2167 507,2167 "/>
</g>

<g fill="#ffffff" fill-opacity="1" stroke="#ffffff" stroke-opacity="1" stroke-width="1" stroke-linecap="square" stroke-linejoin="bevel" transform="matrix(1,0,0,1,0,0)"
font-family="Arial" font-size="16" font-weight="700" font-style="normal" 
>
<text fill="#ffffff" fill-opacity="1" stroke="none" xml:space="preserve" x="967" y="25" font-family="Arial" font-size="16" font-weight="700" font-style="normal" 
 >CARRERA DE PREGRADO</text>
<text fill="#ffffff" fill-opacity="1" stroke="none" xml:space="preserve" x="99" y="59" font-family="Arial" font-size="16" font-weight="700" font-style="normal" 
 >Nivel 1</text>
<text fill="#ffffff" fill-opacity="1" stroke="none" xml:space="preserve" x="303" y="59" font-family="Arial" font-size="16" font-weight="700" font-style="normal" 
 >Nivel 2</text>
<text fill="#ffffff" fill-opacity="1" stroke="none" xml:space="preserve" x="507" y="59" font-family="Arial" font-size="16" font-weight="700" font-style="normal" 
 >Nivel 3</text>
<text fill="#ffffff" fill-opacity="1" stroke="none" xml:space="preserve" x="711" y="59" font-family="Arial" font-size="16" font-weight="700" font-style="normal" 
 >Nivel 4</text>
<text fill="#ffffff" fill-opacity="1" stroke="none" xml:space="preserve" x="915" y="59" font-family="Arial" font-size="16" font-weight="700" font-style="normal" 
 >Nivel 5</text>
<text fill="#ffffff" fill-opacity="1" stroke="none" xml:space="preserve" x="1119" y="59" font-family="Arial" font-size="16" font-weight="700" font-style="normal" 
 >Nivel 6</text>
<text fill="#ffffff" fill-opacity="1" stroke="none" xml:space="preserve" x="1323" y="59" font-family="Arial" font-size="16" font-weight="700" font-style="normal" 
 >Nivel 7</text>
<text fill="#ffffff" fill-opacity="1" stroke="none" xml:space="preserve" x="1527" y="59" font-family="Arial" font-size="16" font-weight="700" font-style="normal" 
 >Nivel 8</text>
<text fill="#ffffff" fill-opacity="1" stroke="none" xml:space="preserve" x="1731" y="59" font-family="Arial" font-size="16" font-weight="700" font-style="normal" 
 >Nivel 9</text>
<text fill="#ffffff" fill-opacity="1" stroke="none" xml:space="preserve" x="1935" y="59" font-family="Arial" font-size="16" font-weight="700" font-style="normal" 
 >Nivel 10</text>
</g>

<g fill="#ffffff" fill-opacity="1" stroke="#ffffff" stroke-opacity="1" stroke-width="1" stroke-linecap="square" stroke-linejoin="bevel" transform="matrix(1,0,0,1,0,0)"
font-family="Arial" font-size="16" font-weight="400" font-style="normal" 
>
<text fill="#ffffff" fill-opacity="1" stroke="none" xml:space="preserve" x="11" y="133" font-family="Arial" font-size="16" font-weight="400" font-style="normal" 
 >Específica</text>
<text fill="#ffffff" fill-opacity="1" stroke="none" xml:space="preserve" x="99" y="145" font-family="Arial" font-size="16" font-weight="400" font-style="normal" 
 >COMUNICACIÓN</text>
<text fill="#ffffff" fill-opacity="1" stroke="none" xml:space="preserve" x="99" y="163" font-family="Arial" font-size="16" font-weight="400" font-style="normal" 
 >CIENTÍFICA I</text>
<text fill="#ffffff" fill-opacity="1" stroke="none" xml:space="preserve" x="303" y="145" font-family="Arial" font-size="16" font-weight="400" font-style="normal" 
 >COMUNICACIÓN</text>
<text fill="#ffffff" fill-opacity="1" stroke="none" xml:space="preserve" x="303" y="163" font-family="Arial" font-size="16" font-weight="400" font-style="normal" 
 >CIENTÍFICA II</text>
<text fill="#ffffff" fill-opacity="1" stroke="none" xml:space="preserve" x="507" y="145" font-family="Arial" font-size="16" font-weight="400" font-style="normal" 
 >METODOLOGÍA Y</text>
<text fill="#ffffff" fill-opacity="1" stroke="none" xml:space="preserve" x="507" y="163" font-family="Arial" font-size="16" font-weight="400" font-style="normal" 
 >ÉTICA EN CIENCIAS</text>
<text fill="#ffffff" fill-opacity="1" stroke="none" xml:space="preserve" x="711" y="145" font-family="Arial" font-size="16" font-weight="400" font-style="normal" 
 >FISIOLOGÍA CELULAR</text>
<text fill="#ffffff" fill-opacity="1" stroke="none" xml:space="preserve" x="915" y="145" font-family="Arial" font-size="16" font-weight="400" font-style="normal" 
 >ADM y FINANZAS DE</text>
<text fill="#ffffff" fill-opacity="1" stroke="none" xml:space="preserve" x="915" y="163" font-family="Arial" font-size="16" font-weight="400" font-style="normal" 
 >EMP</text>
<text fill="#ffffff" fill-opacity="1" stroke="none" xml:space="preserve" x="915" y="181" font-family="Arial" font-size="16" font-weight="400" font-style="normal" 
 >BIOTECNOLÓGICAS</text>
<text fill="#ffffff" fill-opacity="1" stroke="none" xml:space="preserve" x="1119" y="145" font-family="Arial" font-size="16" font-weight="400" font-style="normal" 
 >BIOLOGÍA</text>
<text fill="#ffffff" fill-opacity="1" stroke="none" xml:space="preserve" x="1119" y="163" font-family="Arial" font-size="16" font-weight="400" font-style="normal" 
 >COMPUTACIONAL</text>
<text fill="#ffffff" fill-opacity="1" stroke="none" xml:space="preserve" x="1323" y="145" font-family="Arial" font-size="16" font-weight="400" font-style="normal" 
 >GESTIÓN E INN. DE</text>
<text fill="#ffffff" fill-opacity="1" stroke="none" xml:space="preserve" x="1323" y="163" font-family="Arial" font-size="16" font-weight="400" font-style="normal" 
 >TRANSFERENCIA</text>
<text fill="#ffffff" fill-opacity="1" stroke="none" xml:space="preserve" x="1323" y="181" font-family="Arial" font-size="16" font-weight="400" font-style="normal" 
 >BIOT.</text>
<text fill="#ffffff" fill-opacity="1" stroke="none" xml:space="preserve" x="1527" y="145" font-family="Arial" font-size="16" font-weight="400" font-style="normal" 
 >BIOTECNOLOGÍA</text>
<text fill="#ffffff" fill-opacity="1" stroke="none" xml:space="preserve" x="1527" y="163" font-family="Arial" font-size="16" font-weight="400" font-style="normal" 
 >AMBIENTAL Y</text>
<text fill="#ffffff" fill-opacity="1" stroke="none" xml:space="preserve" x="1527" y="181" font-family="Arial" font-size="16" font-weight="400" font-style="normal" 
 >SOSTENIBILIDAD</text>
<text fill="#ffffff" fill-opacity="1" stroke="none" xml:space="preserve" x="1731" y="145" font-family="Arial" font-size="16" font-weight="400" font-style="normal" 
 >PRÁCTICA</text>
<text fill="#ffffff" fill-opacity="1" stroke="none" xml:space="preserve" x="1731" y="163" font-family="Arial" font-size="16" font-weight="400" font-style="normal" 
 >PROFESIONAL</text>
<text fill="#ffffff" fill-opacity="1" stroke="none" xml:space="preserve" x="1935" y="145" font-family="Arial" font-size="16" font-weight="400" font-style="normal" 
 >PROYECTO DE TÍTULO</text>
<text fill="#ffffff" fill-opacity="1" stroke="none" xml:space="preserve" x="1935" y="163" font-family="Arial" font-size="16" font-weight="400" font-style="normal" 
 >II</text>
<text fill="#ffffff" fill-opacity="1" stroke="none" xml:space="preserve" x="99" y="289" font-family="Arial" font-size="16" font-weight="400" font-style="normal" 
 >INTRODUCCIÓN A LA</text>
<text fill="#ffffff" fill-opacity="1" stroke="none" xml:space="preserve" x="99" y="307" font-family="Arial" font-size="16" font-weight="400" font-style="normal" 
 >BIOTECNOLOGÍA</text>
<text fill="#ffffff" fill-opacity="1" stroke="none" xml:space="preserve" x="303" y="289" font-family="Arial" font-size="16" font-weight="400" font-style="normal" 
 >LABORATORIO DE</text>
<text fill="#ffffff" fill-opacity="1" stroke="none" xml:space="preserve" x="303" y="307" font-family="Arial" font-size="16" font-weight="400" font-style="normal" 
 >BIOTECNOLOGÍA</text>
<text fill="#ffffff" fill-opacity="1" stroke="none" xml:space="preserve" x="507" y="289" font-family="Arial" font-size="16" font-weight="400" font-style="normal" 
 >PENSAMIENTO</text>
<text fill="#ffffff" fill-opacity="1" stroke="none" xml:space="preserve" x="507" y="307" font-family="Arial" font-size="16" font-weight="400" font-style="normal" 
 >COMPUTACIONAL</text>
<text fill="#ffffff" fill-opacity="1" stroke="none" xml:space="preserve" x="711" y="289" font-family="Arial" font-size="16" font-weight="400" font-style="normal" 
 >GESTION DE</text>
<text fill="#ffffff" fill-opacity="1" stroke="none" xml:space="preserve" x="711" y="307" font-family="Arial" font-size="16" font-weight="400" font-style="normal" 
 >BIOEMPRENDIMIENTOS</text>
<text fill="#ffffff" fill-opacity="1" stroke="none" xml:space="preserve" x="915" y="289" font-family="Arial" font-size="16" font-weight="400" font-style="normal" 
 >GENÉTICA</text>
<text fill="#ffffff" fill-opacity="1" stroke="none" xml:space="preserve" x="915" y="307" font-family="Arial" font-size="16" font-weight="400" font-style="normal" 
 >MOLECULAR</text>
<text fill="#ffffff" fill-opacity="1" stroke="none" xml:space="preserve" x="1119" y="289" font-family="Arial" font-size="16" font-weight="400" font-style="normal" 
 >FORMULACIÓN Y</text>
<text fill="#ffffff" fill-opacity="1" stroke="none" xml:space="preserve" x="1119" y="307" font-family="Arial" font-size="16" font-weight="400" font-style="normal" 
 >EVALUACIÓN DE</text>
<text fill="#ffffff" fill-opacity="1" stroke="none" xml:space="preserve" x="1119" y="325" font-family="Arial" font-size="16" font-weight="400" font-style="normal" 
 >PROYECTOS</text>
<text fill="#ffffff" fill-opacity="1" stroke="none" xml:space="preserve" x="1323" y="289" font-family="Arial" font-size="16" font-weight="400" font-style="normal" 
 >BIOTECNOLOGÍA</text>
<text fill="#ffffff" fill-opacity="1" stroke="none" xml:space="preserve" x="1323" y="307" font-family="Arial" font-size="16" font-weight="400" font-style="normal" 
 >VEGETAL</text>
<text fill="#ffffff" fill-opacity="1" stroke="none" xml:space="preserve" x="1527" y="289" font-family="Arial" font-size="16" font-weight="400" font-style="normal" 
 >BIOLOGÍA SINTÉTICA</text>
<text fill="#ffffff" fill-opacity="1" stroke="none" xml:space="preserve" x="1731" y="289" font-family="Arial" font-size="16" font-weight="400" font-style="normal" 
 >PROYECTO DE TÍTULO</text>
<text fill="#ffffff" fill-opacity="1" stroke="none" xml:space="preserve" x="1731" y="307" font-family="Arial" font-size="16" font-weight="400" font-style="normal" 
 >I</text>
<text fill="#ffffff" fill-opacity="1" stroke="none" xml:space="preserve" x="711" y="518" font-family="Arial" font-size="16" font-weight="400" font-style="normal" 
 >BIOLOGÍA MOLECULAR</text>
<text fill="#ffffff" fill-opacity="1" stroke="none" xml:space="preserve" x="711" y="536" font-family="Arial" font-size="16" font-weight="400" font-style="normal" 
 >AVANZADA</text>
<text fill="#ffffff" fill-opacity="1" stroke="none" xml:space="preserve" x="915" y="518" font-family="Arial" font-size="16" font-weight="400" font-style="normal" 
 >MICROBIOLOGÍA</text>
<text fill="#ffffff" fill-opacity="1" stroke="none" xml:space="preserve" x="915" y="536" font-family="Arial" font-size="16" font-weight="400" font-style="normal" 
 >APLICADA</text>
<text fill="#ffffff" fill-opacity="1" stroke="none" xml:space="preserve" x="1119" y="518" font-family="Arial" font-size="16" font-weight="400" font-style="normal" 
 >BIOTECNOLOGÍA</text>
<text fill="#ffffff" fill-opacity="1" stroke="none" xml:space="preserve" x="1119" y="536" font-family="Arial" font-size="16" font-weight="400" font-style="normal" 
 >MICROBIANA</text>
<text fill="#ffffff" fill-opacity="1" stroke="none" xml:space="preserve" x="1323" y="518" font-family="Arial" font-size="16" font-weight="400" font-style="normal" 
 >BIOTECNOLOGÍA</text>
<text fill="#ffffff" fill-opacity="1" stroke="none" xml:space="preserve" x="1323" y="536" font-family="Arial" font-size="16" font-weight="400" font-style="normal" 
 >INDUSTRIAL Y</text>
<text fill="#ffffff" fill-opacity="1" stroke="none" xml:space="preserve" x="1323" y="554" font-family="Arial" font-size="16" font-weight="400" font-style="normal" 
 >BIOPROCESOS</text>
<text fill="#ffffff" fill-opacity="1" stroke="none" xml:space="preserve" x="1527" y="518" font-family="Arial" font-size="16" font-weight="400" font-style="normal" 
 >TALLER INTEG. DE</text>
<text fill="#ffffff" fill-opacity="1" stroke="none" xml:space="preserve" x="1527" y="536" font-family="Arial" font-size="16" font-weight="400" font-style="normal" 
 >GENÓMICA Y</text>
<text fill="#ffffff" fill-opacity="1" stroke="none" xml:space="preserve" x="1527" y="554" font-family="Arial" font-size="16" font-weight="400" font-style="normal" 
 >BIOINFORM.</text>
<text fill="#ffffff" fill-opacity="1" stroke="none" xml:space="preserve" x="11" y="968" font-family="Arial" font-size="16" font-weight="400" font-style="normal" 
 >Básica</text>
<text fill="#ffffff" fill-opacity="1" stroke="none" xml:space="preserve" x="99" y="749" font-family="Arial" font-size="16" font-weight="400" font-style="normal" 
 >ÁLGEBRA</text>
<text fill="#ffffff" fill-opacity="1" stroke="none" xml:space="preserve" x="303" y="749" font-family="Arial" font-size="16" font-weight="400" font-style="normal" 
 >ÁLGEBRA LINEAL</text>
<text fill="#ffffff" fill-opacity="1" stroke="none" xml:space="preserve" x="507" y="749" font-family="Arial" font-size="16" font-weight="400" font-style="normal" 
 >FUNDAMENTOS DE</text>
<text fill="#ffffff" fill-opacity="1" stroke="none" xml:space="preserve" x="507" y="767" font-family="Arial" font-size="16" font-weight="400" font-style="normal" 
 >BIOQUÍMICA</text>
<text fill="#ffffff" fill-opacity="1" stroke="none" xml:space="preserve" x="711" y="749" font-family="Arial" font-size="16" font-weight="400" font-style="normal" 
 >FISICOQUÍMICA</text>
<text fill="#ffffff" fill-opacity="1" stroke="none" xml:space="preserve" x="915" y="749" font-family="Arial" font-size="16" font-weight="400" font-style="normal" 
 >ESTADÍSTICA</text>
<text fill="#ffffff" fill-opacity="1" stroke="none" xml:space="preserve" x="99" y="893" font-family="Arial" font-size="16" font-weight="400" font-style="normal" 
 >BIOLOGÍA CELULAR Y</text>
<text fill="#ffffff" fill-opacity="1" stroke="none" xml:space="preserve" x="99" y="911" font-family="Arial" font-size="16" font-weight="400" font-style="normal" 
 >MOLECULAR</text>
<text fill="#ffffff" fill-opacity="1" stroke="none" xml:space="preserve" x="303" y="893" font-family="Arial" font-size="16" font-weight="400" font-style="normal" 
 >QUÍMICA ORGÁNICA</text>
<text fill="#ffffff" fill-opacity="1" stroke="none" xml:space="preserve" x="303" y="911" font-family="Arial" font-size="16" font-weight="400" font-style="normal" 
 >PARA</text>
<text fill="#ffffff" fill-opacity="1" stroke="none" xml:space="preserve" x="303" y="929" font-family="Arial" font-size="16" font-weight="400" font-style="normal" 
 >BIOTECNOLOGÍA</text>
<text fill="#ffffff" fill-opacity="1" stroke="none" xml:space="preserve" x="507" y="893" font-family="Arial" font-size="16" font-weight="400" font-style="normal" 
 >CÁLCULO</text>
<text fill="#ffffff" fill-opacity="1" stroke="none" xml:space="preserve" x="99" y="1037" font-family="Arial" font-size="16" font-weight="400" font-style="normal" 
 >FUNDAMENTOS </text>
<text fill="#ffffff" fill-opacity="1" stroke="none" xml:space="preserve" x="227" y="1037" font-family="Arial" font-size="16" font-weight="400" font-style="normal" 
 >DE LA</text>
<text fill="#ffffff" fill-opacity="1" stroke="none" xml:space="preserve" x="99" y="1055" font-family="Arial" font-size="16" font-weight="400" font-style="normal" 
 >QUÍMICA</text>
<text fill="#ffffff" fill-opacity="1" stroke="none" xml:space="preserve" x="303" y="1037" font-family="Arial" font-size="16" font-weight="400" font-style="normal" 
 >RECURSOS</text>
<text fill="#ffffff" fill-opacity="1" stroke="none" xml:space="preserve" x="303" y="1055" font-family="Arial" font-size="16" font-weight="400" font-style="normal" 
 >NATURALES</text>
<text fill="#ffffff" fill-opacity="1" stroke="none" xml:space="preserve" x="507" y="1037" font-family="Arial" font-size="16" font-weight="400" font-style="normal" 
 >QUÍMICA ANALÍTICA</text>
<text fill="#ffffff" fill-opacity="1" stroke="none" xml:space="preserve" x="11" y="1612" font-family="Arial" font-size="16" font-weight="400" font-style="normal" 
 >Electiva</text>
<text fill="#ffffff" fill-opacity="1" stroke="none" xml:space="preserve" x="303" y="1615" font-family="Arial" font-size="16" font-weight="400" font-style="normal" 
 >ELECTIVO 1</text>
<text fill="#ffffff" fill-opacity="1" stroke="none" xml:space="preserve" x="303" y="1633" font-family="Arial" font-size="16" font-weight="400" font-style="normal" 
 >BIOTECNOLOGÍA</text>
<text fill="#ffffff" fill-opacity="1" stroke="none" xml:space="preserve" x="507" y="1615" font-family="Arial" font-size="16" font-weight="400" font-style="normal" 
 >ECONOMÍA DE</text>
<text fill="#ffffff" fill-opacity="1" stroke="none" xml:space="preserve" x="507" y="1633" font-family="Arial" font-size="16" font-weight="400" font-style="normal" 
 >RECUROS NATURALES</text>
<text fill="#ffffff" fill-opacity="1" stroke="none" xml:space="preserve" x="711" y="1615" font-family="Arial" font-size="16" font-weight="400" font-style="normal" 
 >ELECTIVO 2</text>
<text fill="#ffffff" fill-opacity="1" stroke="none" xml:space="preserve" x="711" y="1633" font-family="Arial" font-size="16" font-weight="400" font-style="normal" 
 >BIOTECNOLOGÍA</text>
<text fill="#ffffff" fill-opacity="1" stroke="none" xml:space="preserve" x="915" y="1615" font-family="Arial" font-size="16" font-weight="400" font-style="normal" 
 >ELECTIVO 3</text>
<text fill="#ffffff" fill-opacity="1" stroke="none" xml:space="preserve" x="915" y="1633" font-family="Arial" font-size="16" font-weight="400" font-style="normal" 
 >BIOTECNOLOGÍA</text>
<text fill="#ffffff" fill-opacity="1" stroke="none" xml:space="preserve" x="1119" y="1615" font-family="Arial" font-size="16" font-weight="400" font-style="normal" 
 >ELECTIVO 4</text>
<text fill="#ffffff" fill-opacity="1" stroke="none" xml:space="preserve" x="1119" y="1633" font-family="Arial" font-size="16" font-weight="400" font-style="normal" 
 >BIOTECNOLOGÍA</text>
<text fill="#ffffff" fill-opacity="1" stroke="none" xml:space="preserve" x="1323" y="1615" font-family="Arial" font-size="16" font-weight="400" font-style="normal" 
 >ELECTIVO 5</text>
<text fill="#ffffff" fill-opacity="1" stroke="none" xml:space="preserve" x="1323" y="1633" font-family="Arial" font-size="16" font-weight="400" font-style="normal" 
 >BIOTECNOLOGÍA</text>
<text fill="#ffffff" fill-opacity="1" stroke="none" xml:space="preserve" x="507" y="1759" font-family="Arial" font-size="16" font-weight="400" font-style="normal" 
 >ECONOMÍA CIRCULAR</text>
<text fill="#ffffff" fill-opacity="1" stroke="none" xml:space="preserve" x="507" y="1777" font-family="Arial" font-size="16" font-weight="400" font-style="normal" 
 >EN LAS EMPRESAS</text>
<text fill="#ffffff" fill-opacity="1" stroke="none" xml:space="preserve" x="711" y="1759" font-family="Arial" font-size="16" font-weight="400" font-style="normal" 
 >EVALUACIÓN DE</text>
<text fill="#ffffff" fill-opacity="1" stroke="none" xml:space="preserve" x="711" y="1777" font-family="Arial" font-size="16" font-weight="400" font-style="normal" 
 >PROYECTOS</text>
<text fill="#ffffff" fill-opacity="1" stroke="none" xml:space="preserve" x="711" y="1795" font-family="Arial" font-size="16" font-weight="400" font-style="normal" 
 >GEOLÓGICOS</text>
<text fill="#ffffff" fill-opacity="1" stroke="none" xml:space="preserve" x="915" y="1759" font-family="Arial" font-size="16" font-weight="400" font-style="normal" 
 >ECONOMÍA MINERA Y</text>
<text fill="#ffffff" fill-opacity="1" stroke="none" xml:space="preserve" x="915" y="1777" font-family="Arial" font-size="16" font-weight="400" font-style="normal" 
 >RECURSOS</text>
<text fill="#ffffff" fill-opacity="1" stroke="none" xml:space="preserve" x="915" y="1795" font-family="Arial" font-size="16" font-weight="400" font-style="normal" 
 >NATURALES</text>
<text fill="#ffffff" fill-opacity="1" stroke="none" xml:space="preserve" x="507" y="1903" font-family="Arial" font-size="16" font-weight="400" font-style="normal" 
 >APLICACIONES</text>
<text fill="#ffffff" fill-opacity="1" stroke="none" xml:space="preserve" x="507" y="1921" font-family="Arial" font-size="16" font-weight="400" font-style="normal" 
 >COMPUT. EN</text>
<text fill="#ffffff" fill-opacity="1" stroke="none" xml:space="preserve" x="507" y="1939" font-family="Arial" font-size="16" font-weight="400" font-style="normal" 
 >INGENIERÍA</text>
<text fill="#ffffff" fill-opacity="1" stroke="none" xml:space="preserve" x="711" y="1903" font-family="Arial" font-size="16" font-weight="400" font-style="normal" 
 >GESTIÓN INTEGRAL</text>
<text fill="#ffffff" fill-opacity="1" stroke="none" xml:space="preserve" x="711" y="1921" font-family="Arial" font-size="16" font-weight="400" font-style="normal" 
 >DE RESIDUOS</text>
<text fill="#ffffff" fill-opacity="1" stroke="none" xml:space="preserve" x="711" y="1939" font-family="Arial" font-size="16" font-weight="400" font-style="normal" 
 >SÓLIDOS</text>
<text fill="#ffffff" fill-opacity="1" stroke="none" xml:space="preserve" x="915" y="1903" font-family="Arial" font-size="16" font-weight="400" font-style="normal" 
 >CAMBIO CLIMÁTICO</text>
<text fill="#ffffff" fill-opacity="1" stroke="none" xml:space="preserve" x="915" y="1921" font-family="Arial" font-size="16" font-weight="400" font-style="normal" 
 >GLOBAL</text>
<text fill="#ffffff" fill-opacity="1" stroke="none" xml:space="preserve" x="507" y="2047" font-family="Arial" font-size="16" font-weight="400" font-style="normal" 
 >INTRODUCCIÓN A LA</text>
<text fill="#ffffff" fill-opacity="1" stroke="none" xml:space="preserve" x="507" y="2065" font-family="Arial" font-size="16" font-weight="400" font-style="normal" 
 >CONSTRUCCIÓN</text>
<text fill="#ffffff" fill-opacity="1" stroke="none" xml:space="preserve" x="711" y="2047" font-family="Arial" font-size="16" font-weight="400" font-style="normal" 
 >PROCESAMIENTO Y</text>
<text fill="#ffffff" fill-opacity="1" stroke="none" xml:space="preserve" x="711" y="2065" font-family="Arial" font-size="16" font-weight="400" font-style="normal" 
 >ANÁL. DE BASES DE</text>
<text fill="#ffffff" fill-opacity="1" stroke="none" xml:space="preserve" x="711" y="2083" font-family="Arial" font-size="16" font-weight="400" font-style="normal" 
 >DATOS</text>
<text fill="#ffffff" fill-opacity="1" stroke="none" xml:space="preserve" x="915" y="2047" font-family="Arial" font-size="16" font-weight="400" font-style="normal" 
 >MACHINE LEARNING</text>
<text fill="#ffffff" fill-opacity="1" stroke="none" xml:space="preserve" x="507" y="2191" font-family="Arial" font-size="16" font-weight="400" font-style="normal" 
 >CONSTRUCCIÓN</text>
<text fill="#ffffff" fill-opacity="1" stroke="none" xml:space="preserve" x="507" y="2209" font-family="Arial" font-size="16" font-weight="400" font-style="normal" 
 >SUSTENTABLE</text>
</g>
</g>
</svg>
