<?xml version="1.0" encoding="UTF-8" standalone="no"?>
<svg width="750.711mm" height="740.833mm"
 viewBox="0 0 2128 2100"
 xmlns="http://www.w3.org/2000/svg" xmlns:xlink="http://www.w3.org/1999/xlink"  version="1.2" baseProfile="tiny">
<title>Qt Svg Document</title>
<desc>Generated with Qt</desc>
<defs>
</defs>
<g fill="none" stroke="black" stroke-width="1" fill-rule="evenodd" stroke-linecap="square" stroke-linejoin="bevel" >

<g fill="#ffffff" fill-opacity="1" stroke="none" transform="matrix(1,0,0,1,0,0)"
font-family="Helvetica" font-size="12" font-weight="400" font-style="normal" 
>
<path vector-effect="non-scaling-stroke" fill-rule="evenodd" d="M0,0 L2128,0 L2128,2100 L0,2100 L0,0"/>
<path vector-effect="non-scaling-stroke" fill-rule="evenodd" d="M0,0 L2128,0 L2128,2100 L0,2100 L0,0"/>
</g>

<g fill="#616671" fill-opacity="1" stroke="none" transform="matrix(1,0,0,1,0,0)"
font-family="Helvetica" font-size="12" font-weight="400" font-style="normal" 
>
<path vector-effect="non-scaling-stroke" fill-rule="evenodd" d="M99,35 L279,35 C284.52,35 289,39.48 289,45 L289,105 C289,110.52 284.52,115 279,115 L99,115 C93.48,115 89,110.52 89,105 L89,45 C89,39.48 93.48,35 99,35 "/>
<path vector-effect="non-scaling-stroke" fill-rule="evenodd" d="M303,35 L483,35 C488.52,35 493,39.48 493,45 L493,105 C493,110.52 488.52,115 483,115 L303,115 C297.48,115 293,110.52 293,105 L293,45 C293,39.48 297.48,35 303,35 "/>
<path vector-effect="non-scaling-stroke" fill-rule="evenodd" d="M507,35 L687,35 C692.52,35 697,39.48 697,45 L697,105 C697,110.52 692.52,115 687,115 L507,115 C501.48,115 497,110.52 497,105 L497,45 C497,39.48 501.48,35 507,35 "/>
<path vector-effect="non-scaling-stroke" fill-rule="evenodd" d="M711,35 L891,35 C896.52,35 901,39.48 901,45 L901,105 C901,110.52 896.52,115 891,115 L711,115 C705.48,115 701,110.52 701,105 L701,45 C701,39.48 705.48,35 711,35 "/>
<path vector-effect="non-scaling-stroke" fill-rule="evenodd" d="M915,35 L1095,35 C1100.52,35 1105,39.48 1105,45 L1105,105 C1105,110.52 1100.52,115 1095,115 L915,115 C909.48,115 905,110.52 905,105 L905,45 C905,39.48 909.48,35 915,35 "/>
<path vector-effect="non-scaling-stroke" fill-rule="evenodd" d="M1119,35 L1299,35 C1304.52,35 1309,39.48 1309,45 L1309,105 C1309,110.52 1304.52,115 1299,115 L1119,115 C1113.48,115 1109,110.52 1109,105 L1109,45 C1109,39.48 1113.48,35 1119,35 "/>
<path vector-effect="non-scaling-stroke" fill-rule="evenodd" d="M1323,35 L1503,35 C1508.52,35 1513,39.48 1513,45 L1513,105 C1513,110.52 1508.52,115 1503,115 L1323,115 C1317.48,115 1313,110.52 1313,105 L1313,45 C1313,39.48 1317.48,35 1323,35 "/>
<path vector-effect="non-scaling-stroke" fill-rule="evenodd" d="M1527,35 L1707,35 C1712.52,35 1717,39.48 1717,45 L1717,105 C1717,110.52 1712.52,115 1707,115 L1527,115 C1521.48,115 1517,110.52 1517,105 L1517,45 C1517,39.48 1521.48,35 1527,35 "/>
<path vector-effect="non-scaling-stroke" fill-rule="evenodd" d="M1731,35 L1911,35 C1916.52,35 1921,39.48 1921,45 L1921,105 C1921,110.52 1916.52,115 1911,115 L1731,115 C1725.48,115 1721,110.52 1721,105 L1721,45 C1721,39.48 1725.48,35 1731,35 "/>
<path vector-effect="non-scaling-stroke" fill-rule="evenodd" d="M1935,35 L2115,35 C2120.52,35 2125,39.48 2125,45 L2125,105 C2125,110.52 2120.52,115 2115,115 L1935,115 C1929.48,115 1925,110.52 1925,105 L1925,45 C1925,39.48 1929.48,35 1935,35 "/>
</g>

<g fill="#5dbcb3" fill-opacity="1" stroke="none" transform="matrix(1,0,0,1,0,0)"
font-family="Helvetica" font-size="12" font-weight="400" font-style="normal" 
>
<path vector-effect="non-scaling-stroke" fill-rule="evenodd" d="M21,119 L75,119 C80.52,119 85,123.48 85,129 L85,809 C85,814.52 80.52,819 75,819 L21,819 C15.48,819 11,814.52 11,809 L11,129 C11,123.48 15.48,119 21,119 "/>
<path vector-effect="non-scaling-stroke" fill-rule="evenodd" d="M99,121 L279,121 C284.52,121 289,125.48 289,131 L289,251 C289,256.52 284.52,261 279,261 L99,261 C93.48,261 89,256.52 89,251 L89,131 C89,125.48 93.48,121 99,121 "/>
<path vector-effect="non-scaling-stroke" fill-rule="evenodd" d="M303,121 L483,121 C488.52,121 493,125.48 493,131 L493,251 C493,256.52 488.52,261 483,261 L303,261 C297.48,261 293,256.52 293,251 L293,131 C293,125.48 297.48,121 303,121 "/>
<path vector-effect="non-scaling-stroke" fill-rule="evenodd" d="M507,121 L687,121 C692.52,121 697,125.48 697,131 L697,251 C697,256.52 692.52,261 687,261 L507,261 C501.48,261 497,256.52 497,251 L497,131 C497,125.48 501.48,121 507,121 "/>
<path vector-effect="non-scaling-stroke" fill-rule="evenodd" d="M711,121 L891,121 C896.52,121 901,125.48 901,131 L901,251 C901,256.52 896.52,261 891,261 L711,261 C705.48,261 701,256.52 701,251 L701,131 C701,125.48 705.48,121 711,121 "/>
<path vector-effect="non-scaling-stroke" fill-rule="evenodd" d="M915,121 L1095,121 C1100.52,121 1105,125.48 1105,131 L1105,251 C1105,256.52 1100.52,261 1095,261 L915,261 C909.48,261 905,256.52 905,251 L905,131 C905,125.48 909.48,121 915,121 "/>
<path vector-effect="non-scaling-stroke" fill-rule="evenodd" d="M1119,121 L1299,121 C1304.52,121 1309,125.48 1309,131 L1309,251 C1309,256.52 1304.52,261 1299,261 L1119,261 C1113.48,261 1109,256.52 1109,251 L1109,131 C1109,125.48 1113.48,121 1119,121 "/>
<path vector-effect="non-scaling-stroke" fill-rule="evenodd" d="M1323,121 L1503,121 C1508.52,121 1513,125.48 1513,131 L1513,251 C1513,256.52 1508.52,261 1503,261 L1323,261 C1317.48,261 1313,256.52 1313,251 L1313,131 C1313,125.48 1317.48,121 1323,121 "/>
<path vector-effect="non-scaling-stroke" fill-rule="evenodd" d="M1527,121 L1707,121 C1712.52,121 1717,125.48 1717,131 L1717,251 C1717,256.52 1712.52,261 1707,261 L1527,261 C1521.48,261 1517,256.52 1517,251 L1517,131 C1517,125.48 1521.48,121 1527,121 "/>
<path vector-effect="non-scaling-stroke" fill-rule="evenodd" d="M1731,121 L1911,121 C1916.52,121 1921,125.48 1921,131 L1921,251 C1921,256.52 1916.52,261 1911,261 L1731,261 C1725.48,261 1721,256.52 1721,251 L1721,131 C1721,125.48 1725.48,121 1731,121 "/>
<path vector-effect="non-scaling-stroke" fill-rule="evenodd" d="M1935,121 L2115,121 C2120.52,121 2125,125.48 2125,131 L2125,251 C2125,256.52 2120.52,261 2115,261 L1935,261 C1929.48,261 1925,256.52 1925,251 L1925,131 C1925,125.48 1929.48,121 1935,121 "/>
<path vector-effect="non-scaling-stroke" fill-rule="evenodd" d="M99,265 L279,265 C284.52,265 289,269.48 289,275 L289,395 C289,400.52 284.52,405 279,405 L99,405 C93.48,405 89,400.52 89,395 L89,275 C89,269.48 93.48,265 99,265 "/>
<path vector-effect="non-scaling-stroke" fill-rule="evenodd" d="M303,265 L483,265 C488.52,265 493,269.48 493,275 L493,395 C493,400.52 488.52,405 483,405 L303,405 C297.48,405 293,400.52 293,395 L293,275 C293,269.48 297.48,265 303,265 "/>
<path vector-effect="non-scaling-stroke" fill-rule="evenodd" d="M507,265 L687,265 C692.52,265 697,269.48 697,275 L697,395 C697,400.52 692.52,405 687,405 L507,405 C501.48,405 497,400.52 497,395 L497,275 C497,269.48 501.48,265 507,265 "/>
<path vector-effect="non-scaling-stroke" fill-rule="evenodd" d="M711,265 L891,265 C896.52,265 901,269.48 901,275 L901,395 C901,400.52 896.52,405 891,405 L711,405 C705.48,405 701,400.52 701,395 L701,275 C701,269.48 705.48,265 711,265 "/>
<path vector-effect="non-scaling-stroke" fill-rule="evenodd" d="M915,265 L1095,265 C1100.52,265 1105,269.48 1105,275 L1105,395 C1105,400.52 1100.52,405 1095,405 L915,405 C909.48,405 905,400.52 905,395 L905,275 C905,269.48 909.48,265 915,265 "/>
<path vector-effect="non-scaling-stroke" fill-rule="evenodd" d="M1119,265 L1299,265 C1304.52,265 1309,269.48 1309,275 L1309,395 C1309,400.52 1304.52,405 1299,405 L1119,405 C1113.48,405 1109,400.52 1109,395 L1109,275 C1109,269.48 1113.48,265 1119,265 "/>
<path vector-effect="non-scaling-stroke" fill-rule="evenodd" d="M1323,265 L1503,265 C1508.52,265 1513,269.48 1513,275 L1513,395 C1513,400.52 1508.52,405 1503,405 L1323,405 C1317.48,405 1313,400.52 1313,395 L1313,275 C1313,269.48 1317.48,265 1323,265 "/>
<path vector-effect="non-scaling-stroke" fill-rule="evenodd" d="M1527,265 L1707,265 C1712.52,265 1717,269.48 1717,275 L1717,395 C1717,400.52 1712.52,405 1707,405 L1527,405 C1521.48,405 1517,400.52 1517,395 L1517,275 C1517,269.48 1521.48,265 1527,265 "/>
<path vector-effect="non-scaling-stroke" fill-rule="evenodd" d="M1731,265 L1911,265 C1916.52,265 1921,269.48 1921,275 L1921,395 C1921,400.52 1916.52,405 1911,405 L1731,405 C1725.48,405 1721,400.52 1721,395 L1721,275 C1721,269.48 1725.48,265 1731,265 "/>
<path vector-effect="non-scaling-stroke" fill-rule="evenodd" d="M1935,265 L2115,265 C2120.52,265 2125,269.48 2125,275 L2125,395 C2125,400.52 2120.52,405 2115,405 L1935,405 C1929.48,405 1925,400.52 1925,395 L1925,275 C1925,269.48 1929.48,265 1935,265 "/>
<path vector-effect="non-scaling-stroke" fill-rule="evenodd" d="M507,544 L687,544 C692.52,544 697,548.48 697,554 L697,674 C697,679.52 692.52,684 687,684 L507,684 C501.48,684 497,679.52 497,674 L497,554 C497,548.48 501.48,544 507,544 "/>
<path vector-effect="non-scaling-stroke" fill-rule="evenodd" d="M711,544 L891,544 C896.52,544 901,548.48 901,554 L901,674 C901,679.52 896.52,684 891,684 L711,684 C705.48,684 701,679.52 701,674 L701,554 C701,548.48 705.48,544 711,544 "/>
<path vector-effect="non-scaling-stroke" fill-rule="evenodd" d="M915,544 L1095,544 C1100.52,544 1105,548.48 1105,554 L1105,674 C1105,679.52 1100.52,684 1095,684 L915,684 C909.48,684 905,679.52 905,674 L905,554 C905,548.48 909.48,544 915,544 "/>
<path vector-effect="non-scaling-stroke" fill-rule="evenodd" d="M1119,544 L1299,544 C1304.52,544 1309,548.48 1309,554 L1309,674 C1309,679.52 1304.52,684 1299,684 L1119,684 C1113.48,684 1109,679.52 1109,674 L1109,554 C1109,548.48 1113.48,544 1119,544 "/>
<path vector-effect="non-scaling-stroke" fill-rule="evenodd" d="M1323,544 L1503,544 C1508.52,544 1513,548.48 1513,554 L1513,674 C1513,679.52 1508.52,684 1503,684 L1323,684 C1317.48,684 1313,679.52 1313,674 L1313,554 C1313,548.48 1317.48,544 1323,544 "/>
<path vector-effect="non-scaling-stroke" fill-rule="evenodd" d="M1527,544 L1707,544 C1712.52,544 1717,548.48 1717,554 L1717,674 C1717,679.52 1712.52,684 1707,684 L1527,684 C1521.48,684 1517,679.52 1517,674 L1517,554 C1517,548.48 1521.48,544 1527,544 "/>
<path vector-effect="non-scaling-stroke" fill-rule="evenodd" d="M1731,544 L1911,544 C1916.52,544 1921,548.48 1921,554 L1921,674 C1921,679.52 1916.52,684 1911,684 L1731,684 C1725.48,684 1721,679.52 1721,674 L1721,554 C1721,548.48 1725.48,544 1731,544 "/>
<path vector-effect="non-scaling-stroke" fill-rule="evenodd" d="M1935,544 L2115,544 C2120.52,544 2125,548.48 2125,554 L2125,674 C2125,679.52 2120.52,684 2115,684 L1935,684 C1929.48,684 1925,679.52 1925,674 L1925,554 C1925,548.48 1929.48,544 1935,544 "/>
</g>

<g fill="#e08131" fill-opacity="1" stroke="none" transform="matrix(1,0,0,1,0,0)"
font-family="Helvetica" font-size="12" font-weight="400" font-style="normal" 
>
<path vector-effect="non-scaling-stroke" fill-rule="evenodd" d="M21,823 L75,823 C80.52,823 85,827.48 85,833 L85,1213 C85,1218.52 80.52,1223 75,1223 L21,1223 C15.48,1223 11,1218.52 11,1213 L11,833 C11,827.48 15.48,823 21,823 "/>
<path vector-effect="non-scaling-stroke" fill-rule="evenodd" d="M99,825 L279,825 C284.52,825 289,829.48 289,835 L289,955 C289,960.52 284.52,965 279,965 L99,965 C93.48,965 89,960.52 89,955 L89,835 C89,829.48 93.48,825 99,825 "/>
<path vector-effect="non-scaling-stroke" fill-rule="evenodd" d="M303,825 L483,825 C488.52,825 493,829.48 493,835 L493,955 C493,960.52 488.52,965 483,965 L303,965 C297.48,965 293,960.52 293,955 L293,835 C293,829.48 297.48,825 303,825 "/>
<path vector-effect="non-scaling-stroke" fill-rule="evenodd" d="M507,825 L687,825 C692.52,825 697,829.48 697,835 L697,955 C697,960.52 692.52,965 687,965 L507,965 C501.48,965 497,960.52 497,955 L497,835 C497,829.48 501.48,825 507,825 "/>
<path vector-effect="non-scaling-stroke" fill-rule="evenodd" d="M99,1026 L279,1026 C284.52,1026 289,1030.48 289,1036 L289,1156 C289,1161.52 284.52,1166 279,1166 L99,1166 C93.48,1166 89,1161.52 89,1156 L89,1036 C89,1030.48 93.48,1026 99,1026 "/>
<path vector-effect="non-scaling-stroke" fill-rule="evenodd" d="M303,1026 L483,1026 C488.52,1026 493,1030.48 493,1036 L493,1156 C493,1161.52 488.52,1166 483,1166 L303,1166 C297.48,1166 293,1161.52 293,1156 L293,1036 C293,1030.48 297.48,1026 303,1026 "/>
</g>

<g fill="#972475" fill-opacity="1" stroke="none" transform="matrix(1,0,0,1,0,0)"
font-family="Helvetica" font-size="12" font-weight="400" font-style="normal" 
>
<path vector-effect="non-scaling-stroke" fill-rule="evenodd" d="M21,1508 L75,1508 C80.52,1508 85,1512.48 85,1518 L85,1798 C85,1803.52 80.52,1808 75,1808 L21,1808 C15.48,1808 11,1803.52 11,1798 L11,1518 C11,1512.48 15.48,1508 21,1508 "/>
<path vector-effect="non-scaling-stroke" fill-rule="evenodd" d="M303,1229 L483,1229 C488.52,1229 493,1233.48 493,1239 L493,1359 C493,1364.52 488.52,1369 483,1369 L303,1369 C297.48,1369 293,1364.52 293,1359 L293,1239 C293,1233.48 297.48,1229 303,1229 "/>
<path vector-effect="non-scaling-stroke" fill-rule="evenodd" d="M507,1229 L687,1229 C692.52,1229 697,1233.48 697,1239 L697,1359 C697,1364.52 692.52,1369 687,1369 L507,1369 C501.48,1369 497,1364.52 497,1359 L497,1239 C497,1233.48 501.48,1229 507,1229 "/>
<path vector-effect="non-scaling-stroke" fill-rule="evenodd" d="M711,1229 L891,1229 C896.52,1229 901,1233.48 901,1239 L901,1359 C901,1364.52 896.52,1369 891,1369 L711,1369 C705.48,1369 701,1364.52 701,1359 L701,1239 C701,1233.48 705.48,1229 711,1229 "/>
<path vector-effect="non-scaling-stroke" fill-rule="evenodd" d="M915,1229 L1095,1229 C1100.52,1229 1105,1233.48 1105,1239 L1105,1359 C1105,1364.52 1100.52,1369 1095,1369 L915,1369 C909.48,1369 905,1364.52 905,1359 L905,1239 C905,1233.48 909.48,1229 915,1229 "/>
<path vector-effect="non-scaling-stroke" fill-rule="evenodd" d="M1119,1229 L1299,1229 C1304.52,1229 1309,1233.48 1309,1239 L1309,1359 C1309,1364.52 1304.52,1369 1299,1369 L1119,1369 C1113.48,1369 1109,1364.52 1109,1359 L1109,1239 C1109,1233.48 1113.48,1229 1119,1229 "/>
<path vector-effect="non-scaling-stroke" fill-rule="evenodd" d="M1323,1229 L1503,1229 C1508.52,1229 1513,1233.48 1513,1239 L1513,1359 C1513,1364.52 1508.52,1369 1503,1369 L1323,1369 C1317.48,1369 1313,1364.52 1313,1359 L1313,1239 C1313,1233.48 1317.48,1229 1323,1229 "/>
<path vector-effect="non-scaling-stroke" fill-rule="evenodd" d="M711,1373 L891,1373 C896.52,1373 901,1377.48 901,1383 L901,1503 C901,1508.52 896.52,1513 891,1513 L711,1513 C705.48,1513 701,1508.52 701,1503 L701,1383 C701,1377.48 705.48,1373 711,1373 "/>
<path vector-effect="non-scaling-stroke" fill-rule="evenodd" d="M915,1373 L1095,1373 C1100.52,1373 1105,1377.48 1105,1383 L1105,1503 C1105,1508.52 1100.52,1513 1095,1513 L915,1513 C909.48,1513 905,1508.52 905,1503 L905,1383 C905,1377.48 909.48,1373 915,1373 "/>
<path vector-effect="non-scaling-stroke" fill-rule="evenodd" d="M1119,1373 L1299,1373 C1304.52,1373 1309,1377.48 1309,1383 L1309,1503 C1309,1508.52 1304.52,1513 1299,1513 L1119,1513 C1113.48,1513 1109,1508.52 1109,1503 L1109,1383 C1109,1377.48 1113.48,1373 1119,1373 "/>
</g>

<g fill="#ffffff" fill-opacity="1" stroke="#ffffff" stroke-opacity="1" stroke-width="1" stroke-linecap="square" stroke-linejoin="bevel" transform="matrix(1,0,0,1,0,0)"
font-family="Arial" font-size="16" font-weight="700" font-style="normal" 
>
<text fill="#ffffff" fill-opacity="1" stroke="none" xml:space="preserve" x="967" y="25" font-family="Arial" font-size="16" font-weight="700" font-style="normal" 
 >CARRERA DE PREGRADO</text>
<text fill="#ffffff" fill-opacity="1" stroke="none" xml:space="preserve" x="99" y="59" font-family="Arial" font-size="16" font-weight="700" font-style="normal" 
 >Nivel 1</text>
<text fill="#ffffff" fill-opacity="1" stroke="none" xml:space="preserve" x="303" y="59" font-family="Arial" font-size="16" font-weight="700" font-style="normal" 
 >Nivel 2</text>
<text fill="#ffffff" fill-opacity="1" stroke="none" xml:space="preserve" x="507" y="59" font-family="Arial" font-size="16" font-weight="700" font-style="normal" 
 >Nivel 3</text>
<text fill="#ffffff" fill-opacity="1" stroke="none" xml:space="preserve" x="711" y="59" font-family="Arial" font-size="16" font-weight="700" font-style="normal" 
 >Nivel 4</text>
<text fill="#ffffff" fill-opacity="1" stroke="none" xml:space="preserve" x="915" y="59" font-family="Arial" font-size="16" font-weight="700" font-style="normal" 
 >Nivel 5</text>
<text fill="#ffffff" fill-opacity="1" stroke="none" xml:space="preserve" x="1119" y="59" font-family="Arial" font-size="16" font-weight="700" font-style="normal" 
 >Nivel 6</text>
<text fill="#ffffff" fill-opacity="1" stroke="none" xml:space="preserve" x="1323" y="59" font-family="Arial" font-size="16" font-weight="700" font-style="normal" 
 >Nivel 7</text>
<text fill="#ffffff" fill-opacity="1" stroke="none" xml:space="preserve" x="1527" y="59" font-family="Arial" font-size="16" font-weight="700" font-style="normal" 
 >Nivel 8</text>
<text fill="#ffffff" fill-opacity="1" stroke="none" xml:space="preserve" x="1731" y="59" font-family="Arial" font-size="16" font-weight="700" font-style="normal" 
 >Nivel 9</text>
<text fill="#ffffff" fill-opacity="1" stroke="none" xml:space="preserve" x="1935" y="59" font-family="Arial" font-size="16" font-weight="700" font-style="normal" 
 >Nivel 10</text>
</g>

<g fill="#ffffff" fill-opacity="1" stroke="#ffffff" stroke-opacity="1" stroke-width="1" stroke-linecap="square" stroke-linejoin="bevel" transform="matrix(1,0,0,1,0,0)"
font-family="Arial" font-size="16" font-weight="400" font-style="normal" 
>
<text fill="#ffffff" fill-opacity="1" stroke="none" xml:space="preserve" x="11" y="133" font-family="Arial" font-size="16" font-weight="400" font-style="normal" 
 >Específica</text>
<text fill="#ffffff" fill-opacity="1" stroke="none" xml:space="preserve" x="99" y="145" font-family="Arial" font-size="16" font-weight="400" font-style="normal" 
 >TEORÍA POLÍTICA Y</text>
<text fill="#ffffff" fill-opacity="1" stroke="none" xml:space="preserve" x="99" y="163" font-family="Arial" font-size="16" font-weight="400" font-style="normal" 
 >CONSTITUCIONAL</text>
<text fill="#ffffff" fill-opacity="1" stroke="none" xml:space="preserve" x="303" y="145" font-family="Arial" font-size="16" font-weight="400" font-style="normal" 
 >ESTATUTO CONST.</text>
<text fill="#ffffff" fill-opacity="1" stroke="none" xml:space="preserve" x="303" y="163" font-family="Arial" font-size="16" font-weight="400" font-style="normal" 
 >DEL PODER POLÍTICO</text>
<text fill="#ffffff" fill-opacity="1" stroke="none" xml:space="preserve" x="507" y="145" font-family="Arial" font-size="16" font-weight="400" font-style="normal" 
 >JURISDICCIÓN Y</text>
<text fill="#ffffff" fill-opacity="1" stroke="none" xml:space="preserve" x="507" y="163" font-family="Arial" font-size="16" font-weight="400" font-style="normal" 
 >COMPETENCIA</text>
<text fill="#ffffff" fill-opacity="1" stroke="none" xml:space="preserve" x="711" y="145" font-family="Arial" font-size="16" font-weight="400" font-style="normal" 
 >OBLIGACIONES</text>
<text fill="#ffffff" fill-opacity="1" stroke="none" xml:space="preserve" x="915" y="145" font-family="Arial" font-size="16" font-weight="400" font-style="normal" 
 >PROCEDIMIENTO</text>
<text fill="#ffffff" fill-opacity="1" stroke="none" xml:space="preserve" x="915" y="163" font-family="Arial" font-size="16" font-weight="400" font-style="normal" 
 >ORDINARIO Y</text>
<text fill="#ffffff" fill-opacity="1" stroke="none" xml:space="preserve" x="915" y="181" font-family="Arial" font-size="16" font-weight="400" font-style="normal" 
 >SUMARIO</text>
<text fill="#ffffff" fill-opacity="1" stroke="none" xml:space="preserve" x="1119" y="145" font-family="Arial" font-size="16" font-weight="400" font-style="normal" 
 >RECURSOS Y</text>
<text fill="#ffffff" fill-opacity="1" stroke="none" xml:space="preserve" x="1119" y="163" font-family="Arial" font-size="16" font-weight="400" font-style="normal" 
 >PROCEDIMIENTOS</text>
<text fill="#ffffff" fill-opacity="1" stroke="none" xml:space="preserve" x="1119" y="181" font-family="Arial" font-size="16" font-weight="400" font-style="normal" 
 >ESPECIALES</text>
<text fill="#ffffff" fill-opacity="1" stroke="none" xml:space="preserve" x="1323" y="145" font-family="Arial" font-size="16" font-weight="400" font-style="normal" 
 >TALLER DE</text>
<text fill="#ffffff" fill-opacity="1" stroke="none" xml:space="preserve" x="1323" y="163" font-family="Arial" font-size="16" font-weight="400" font-style="normal" 
 >LITIGACIÓN III</text>
<text fill="#ffffff" fill-opacity="1" stroke="none" xml:space="preserve" x="1527" y="145" font-family="Arial" font-size="16" font-weight="400" font-style="normal" 
 >DERECHO</text>
<text fill="#ffffff" fill-opacity="1" stroke="none" xml:space="preserve" x="1527" y="163" font-family="Arial" font-size="16" font-weight="400" font-style="normal" 
 >INTERNACIONAL</text>
<text fill="#ffffff" fill-opacity="1" stroke="none" xml:space="preserve" x="1527" y="181" font-family="Arial" font-size="16" font-weight="400" font-style="normal" 
 >PRIVADO</text>
<text fill="#ffffff" fill-opacity="1" stroke="none" xml:space="preserve" x="1731" y="145" font-family="Arial" font-size="16" font-weight="400" font-style="normal" 
 >PROCEDIMIENTO DE</text>
<text fill="#ffffff" fill-opacity="1" stroke="none" xml:space="preserve" x="1731" y="163" font-family="Arial" font-size="16" font-weight="400" font-style="normal" 
 >EJECUCIÓN</text>
<text fill="#ffffff" fill-opacity="1" stroke="none" xml:space="preserve" x="1935" y="145" font-family="Arial" font-size="16" font-weight="400" font-style="normal" 
 >ÉTICA, PROF.</text>
<text fill="#ffffff" fill-opacity="1" stroke="none" xml:space="preserve" x="1935" y="163" font-family="Arial" font-size="16" font-weight="400" font-style="normal" 
 >JURÍDICA E </text>
<text fill="#ffffff" fill-opacity="1" stroke="none" xml:space="preserve" x="2028" y="163" font-family="Arial" font-size="16" font-weight="400" font-style="normal" 
 >INT.</text>
<text fill="#ffffff" fill-opacity="1" stroke="none" xml:space="preserve" x="1935" y="181" font-family="Arial" font-size="16" font-weight="400" font-style="normal" 
 >ARTIFICIAL</text>
<text fill="#ffffff" fill-opacity="1" stroke="none" xml:space="preserve" x="99" y="289" font-family="Arial" font-size="16" font-weight="400" font-style="normal" 
 >INTRODUCCIÓN A LA</text>
<text fill="#ffffff" fill-opacity="1" stroke="none" xml:space="preserve" x="99" y="307" font-family="Arial" font-size="16" font-weight="400" font-style="normal" 
 >ECONOMÍA</text>
<text fill="#ffffff" fill-opacity="1" stroke="none" xml:space="preserve" x="303" y="289" font-family="Arial" font-size="16" font-weight="400" font-style="normal" 
 >TEORÍA DEL ACTO</text>
<text fill="#ffffff" fill-opacity="1" stroke="none" xml:space="preserve" x="303" y="307" font-family="Arial" font-size="16" font-weight="400" font-style="normal" 
 >JURÍDICO</text>
<text fill="#ffffff" fill-opacity="1" stroke="none" xml:space="preserve" x="507" y="289" font-family="Arial" font-size="16" font-weight="400" font-style="normal" 
 >RÉGIMEN JURÍDICO</text>
<text fill="#ffffff" fill-opacity="1" stroke="none" xml:space="preserve" x="507" y="307" font-family="Arial" font-size="16" font-weight="400" font-style="normal" 
 >DE LOS BIENES</text>
<text fill="#ffffff" fill-opacity="1" stroke="none" xml:space="preserve" x="711" y="289" font-family="Arial" font-size="16" font-weight="400" font-style="normal" 
 >NORMAS COMUNES A</text>
<text fill="#ffffff" fill-opacity="1" stroke="none" xml:space="preserve" x="711" y="307" font-family="Arial" font-size="16" font-weight="400" font-style="normal" 
 >TODO</text>
<text fill="#ffffff" fill-opacity="1" stroke="none" xml:space="preserve" x="711" y="325" font-family="Arial" font-size="16" font-weight="400" font-style="normal" 
 >PROCEDIMIENTO</text>
<text fill="#ffffff" fill-opacity="1" stroke="none" xml:space="preserve" x="915" y="289" font-family="Arial" font-size="16" font-weight="400" font-style="normal" 
 >TALLER DE</text>
<text fill="#ffffff" fill-opacity="1" stroke="none" xml:space="preserve" x="915" y="307" font-family="Arial" font-size="16" font-weight="400" font-style="normal" 
 >LITIGACIÓN I</text>
<text fill="#ffffff" fill-opacity="1" stroke="none" xml:space="preserve" x="1119" y="289" font-family="Arial" font-size="16" font-weight="400" font-style="normal" 
 >TALLER DE</text>
<text fill="#ffffff" fill-opacity="1" stroke="none" xml:space="preserve" x="1119" y="307" font-family="Arial" font-size="16" font-weight="400" font-style="normal" 
 >LITIGACIÓN II</text>
<text fill="#ffffff" fill-opacity="1" stroke="none" xml:space="preserve" x="1323" y="289" font-family="Arial" font-size="16" font-weight="400" font-style="normal" 
 >DERECHO PENAL</text>
<text fill="#ffffff" fill-opacity="1" stroke="none" xml:space="preserve" x="1323" y="307" font-family="Arial" font-size="16" font-weight="400" font-style="normal" 
 >ESPECIAL</text>
<text fill="#ffffff" fill-opacity="1" stroke="none" xml:space="preserve" x="1527" y="289" font-family="Arial" font-size="16" font-weight="400" font-style="normal" 
 >DERECHO</text>
<text fill="#ffffff" fill-opacity="1" stroke="none" xml:space="preserve" x="1527" y="307" font-family="Arial" font-size="16" font-weight="400" font-style="normal" 
 >TRIBUTARIO GENERAL</text>
<text fill="#ffffff" fill-opacity="1" stroke="none" xml:space="preserve" x="1731" y="289" font-family="Arial" font-size="16" font-weight="400" font-style="normal" 
 >OPTATIVO</text>
<text fill="#ffffff" fill-opacity="1" stroke="none" xml:space="preserve" x="1731" y="307" font-family="Arial" font-size="16" font-weight="400" font-style="normal" 
 >DISCIPLINAR II</text>
<text fill="#ffffff" fill-opacity="1" stroke="none" xml:space="preserve" x="1935" y="289" font-family="Arial" font-size="16" font-weight="400" font-style="normal" 
 >CÁTEDRA DE</text>
<text fill="#ffffff" fill-opacity="1" stroke="none" xml:space="preserve" x="1935" y="307" font-family="Arial" font-size="16" font-weight="400" font-style="normal" 
 >INTEGRACIÓN</text>
<text fill="#ffffff" fill-opacity="1" stroke="none" xml:space="preserve" x="1935" y="325" font-family="Arial" font-size="16" font-weight="400" font-style="normal" 
 >JURÍDICA PROCESAL</text>
<text fill="#ffffff" fill-opacity="1" stroke="none" xml:space="preserve" x="507" y="568" font-family="Arial" font-size="16" font-weight="400" font-style="normal" 
 >DER, GARAN Y</text>
<text fill="#ffffff" fill-opacity="1" stroke="none" xml:space="preserve" x="507" y="586" font-family="Arial" font-size="16" font-weight="400" font-style="normal" 
 >RECURSOS</text>
<text fill="#ffffff" fill-opacity="1" stroke="none" xml:space="preserve" x="507" y="604" font-family="Arial" font-size="16" font-weight="400" font-style="normal" 
 >CONSTITUCIONALES I</text>
<text fill="#ffffff" fill-opacity="1" stroke="none" xml:space="preserve" x="711" y="568" font-family="Arial" font-size="16" font-weight="400" font-style="normal" 
 >DERECHO</text>
<text fill="#ffffff" fill-opacity="1" stroke="none" xml:space="preserve" x="711" y="586" font-family="Arial" font-size="16" font-weight="400" font-style="normal" 
 >INTERNACIONAL</text>
<text fill="#ffffff" fill-opacity="1" stroke="none" xml:space="preserve" x="711" y="604" font-family="Arial" font-size="16" font-weight="400" font-style="normal" 
 >PÚBLICO</text>
<text fill="#ffffff" fill-opacity="1" stroke="none" xml:space="preserve" x="915" y="568" font-family="Arial" font-size="16" font-weight="400" font-style="normal" 
 >DERECHO PENAL</text>
<text fill="#ffffff" fill-opacity="1" stroke="none" xml:space="preserve" x="915" y="586" font-family="Arial" font-size="16" font-weight="400" font-style="normal" 
 >GENERAL</text>
<text fill="#ffffff" fill-opacity="1" stroke="none" xml:space="preserve" x="1119" y="568" font-family="Arial" font-size="16" font-weight="400" font-style="normal" 
 >TEORÍA DE LA PENA Y</text>
<text fill="#ffffff" fill-opacity="1" stroke="none" xml:space="preserve" x="1119" y="586" font-family="Arial" font-size="16" font-weight="400" font-style="normal" 
 >DE LA PART. PENAL</text>
<text fill="#ffffff" fill-opacity="1" stroke="none" xml:space="preserve" x="1323" y="568" font-family="Arial" font-size="16" font-weight="400" font-style="normal" 
 >DERECHO PROCESAL</text>
<text fill="#ffffff" fill-opacity="1" stroke="none" xml:space="preserve" x="1323" y="586" font-family="Arial" font-size="16" font-weight="400" font-style="normal" 
 >PENAL</text>
<text fill="#ffffff" fill-opacity="1" stroke="none" xml:space="preserve" x="1527" y="568" font-family="Arial" font-size="16" font-weight="400" font-style="normal" 
 >DERECHO</text>
<text fill="#ffffff" fill-opacity="1" stroke="none" xml:space="preserve" x="1527" y="586" font-family="Arial" font-size="16" font-weight="400" font-style="normal" 
 >ADMINISTRATIVO I</text>
<text fill="#ffffff" fill-opacity="1" stroke="none" xml:space="preserve" x="1731" y="568" font-family="Arial" font-size="16" font-weight="400" font-style="normal" 
 >OPTATIVO</text>
<text fill="#ffffff" fill-opacity="1" stroke="none" xml:space="preserve" x="1731" y="586" font-family="Arial" font-size="16" font-weight="400" font-style="normal" 
 >DISCIPLINAR I</text>
<text fill="#ffffff" fill-opacity="1" stroke="none" xml:space="preserve" x="1935" y="568" font-family="Arial" font-size="16" font-weight="400" font-style="normal" 
 >CÁTEDRA DE</text>
<text fill="#ffffff" fill-opacity="1" stroke="none" xml:space="preserve" x="1935" y="586" font-family="Arial" font-size="16" font-weight="400" font-style="normal" 
 >INTEGRACIÓN</text>
<text fill="#ffffff" fill-opacity="1" stroke="none" xml:space="preserve" x="1935" y="604" font-family="Arial" font-size="16" font-weight="400" font-style="normal" 
 >JURÍDICA CONST</text>
<text fill="#ffffff" fill-opacity="1" stroke="none" xml:space="preserve" x="11" y="837" font-family="Arial" font-size="16" font-weight="400" font-style="normal" 
 >Básica</text>
<text fill="#ffffff" fill-opacity="1" stroke="none" xml:space="preserve" x="99" y="849" font-family="Arial" font-size="16" font-weight="400" font-style="normal" 
 >EVOL. DE LAS</text>
<text fill="#ffffff" fill-opacity="1" stroke="none" xml:space="preserve" x="99" y="867" font-family="Arial" font-size="16" font-weight="400" font-style="normal" 
 >INSTITUCIONES</text>
<text fill="#ffffff" fill-opacity="1" stroke="none" xml:space="preserve" x="99" y="885" font-family="Arial" font-size="16" font-weight="400" font-style="normal" 
 >JURÍDICAS I</text>
<text fill="#ffffff" fill-opacity="1" stroke="none" xml:space="preserve" x="303" y="849" font-family="Arial" font-size="16" font-weight="400" font-style="normal" 
 >POLÍTICA ECONÓMICA</text>
<text fill="#ffffff" fill-opacity="1" stroke="none" xml:space="preserve" x="507" y="849" font-family="Arial" font-size="16" font-weight="400" font-style="normal" 
 >METODOLOGÍA DEL</text>
<text fill="#ffffff" fill-opacity="1" stroke="none" xml:space="preserve" x="507" y="867" font-family="Arial" font-size="16" font-weight="400" font-style="normal" 
 >ANÁLISIS JURÍDICO</text>
<text fill="#ffffff" fill-opacity="1" stroke="none" xml:space="preserve" x="99" y="1050" font-family="Arial" font-size="16" font-weight="400" font-style="normal" 
 >FILOSOFÍA MORAL</text>
<text fill="#ffffff" fill-opacity="1" stroke="none" xml:space="preserve" x="303" y="1050" font-family="Arial" font-size="16" font-weight="400" font-style="normal" 
 >RAZONAMIENTO</text>
<text fill="#ffffff" fill-opacity="1" stroke="none" xml:space="preserve" x="303" y="1068" font-family="Arial" font-size="16" font-weight="400" font-style="normal" 
 >JURÍDICO</text>
<text fill="#ffffff" fill-opacity="1" stroke="none" xml:space="preserve" x="11" y="1522" font-family="Arial" font-size="16" font-weight="400" font-style="normal" 
 >Electiva</text>
<text fill="#ffffff" fill-opacity="1" stroke="none" xml:space="preserve" x="303" y="1253" font-family="Arial" font-size="16" font-weight="400" font-style="normal" 
 >ELECTIVO 1 DERECHO</text>
<text fill="#ffffff" fill-opacity="1" stroke="none" xml:space="preserve" x="507" y="1253" font-family="Arial" font-size="16" font-weight="400" font-style="normal" 
 >ELECTIVO 2 DERECHO</text>
<text fill="#ffffff" fill-opacity="1" stroke="none" xml:space="preserve" x="711" y="1253" font-family="Arial" font-size="16" font-weight="400" font-style="normal" 
 >ELECTIVO 3 DERECHO</text>
<text fill="#ffffff" fill-opacity="1" stroke="none" xml:space="preserve" x="915" y="1253" font-family="Arial" font-size="16" font-weight="400" font-style="normal" 
 >HISTORIA Y FILOSOFÍA</text>
<text fill="#ffffff" fill-opacity="1" stroke="none" xml:space="preserve" x="915" y="1271" font-family="Arial" font-size="16" font-weight="400" font-style="normal" 
 >DEL ARTE</text>
<text fill="#ffffff" fill-opacity="1" stroke="none" xml:space="preserve" x="1119" y="1253" font-family="Arial" font-size="16" font-weight="400" font-style="normal" 
 >LABORATORIO</text>
<text fill="#ffffff" fill-opacity="1" stroke="none" xml:space="preserve" x="1119" y="1271" font-family="Arial" font-size="16" font-weight="400" font-style="normal" 
 >CREACIÓN</text>
<text fill="#ffffff" fill-opacity="1" stroke="none" xml:space="preserve" x="1119" y="1289" font-family="Arial" font-size="16" font-weight="400" font-style="normal" 
 >EXPERIMENTAL</text>
<text fill="#ffffff" fill-opacity="1" stroke="none" xml:space="preserve" x="1323" y="1253" font-family="Arial" font-size="16" font-weight="400" font-style="normal" 
 >ELECTIVO 4 DERECHO</text>
<text fill="#ffffff" fill-opacity="1" stroke="none" xml:space="preserve" x="711" y="1397" font-family="Arial" font-size="16" font-weight="400" font-style="normal" 
 >PROCS. CREATIVOS,</text>
<text fill="#ffffff" fill-opacity="1" stroke="none" xml:space="preserve" x="711" y="1415" font-family="Arial" font-size="16" font-weight="400" font-style="normal" 
 >REF. DE TRANSF.</text>
<text fill="#ffffff" fill-opacity="1" stroke="none" xml:space="preserve" x="711" y="1433" font-family="Arial" font-size="16" font-weight="400" font-style="normal" 
 >SOCIAL</text>
<text fill="#ffffff" fill-opacity="1" stroke="none" xml:space="preserve" x="915" y="1397" font-family="Arial" font-size="16" font-weight="400" font-style="normal" 
 >CULTURA, ÉTICA E</text>
<text fill="#ffffff" fill-opacity="1" stroke="none" xml:space="preserve" x="915" y="1415" font-family="Arial" font-size="16" font-weight="400" font-style="normal" 
 >INT. EN CONTEXTO</text>
<text fill="#ffffff" fill-opacity="1" stroke="none" xml:space="preserve" x="915" y="1433" font-family="Arial" font-size="16" font-weight="400" font-style="normal" 
 >GLOBAL</text>
<text fill="#ffffff" fill-opacity="1" stroke="none" xml:space="preserve" x="1119" y="1397" font-family="Arial" font-size="16" font-weight="400" font-style="normal" 
 >CLIMA, SALUD &amp;</text>
<text fill="#ffffff" fill-opacity="1" stroke="none" xml:space="preserve" x="1119" y="1415" font-family="Arial" font-size="16" font-weight="400" font-style="normal" 
 >MIGRACIÓN</text>
</g>
</g>
</svg>
